<svg width="24" height="24" viewBox="0 0 24 24" fill="none" xmlns="http://www.w3.org/2000/svg">
<g clip-path="url(#clip0_762_11444)">
<path fill-rule="evenodd" clip-rule="evenodd" d="M13.232 1.36C13.864 0.601999 15.095 1.12 14.995 2.102L14.289 9H20C20.19 9.00007 20.3761 9.05428 20.5364 9.15627C20.6967 9.25826 20.8247 9.40382 20.9052 9.5759C20.9858 9.74798 21.0157 9.93946 20.9914 10.1279C20.9671 10.3164 20.8896 10.494 20.768 10.64L10.768 22.64C10.136 23.398 8.90499 22.88 9.00499 21.898L9.71099 15H3.99999C3.80998 14.9999 3.62392 14.9457 3.4636 14.8437C3.30328 14.7417 3.17533 14.5962 3.09475 14.4241C3.01416 14.252 2.98428 14.0605 3.00858 13.8721C3.03289 13.6836 3.11038 13.506 3.23199 13.36L13.232 1.36Z" fill="#CECECE"/>
<path d="M23.94 24.036H22.872L21.948 21.564H18.144L17.184 24.036H16.116L19.464 15.3H20.652L23.94 24.036ZM21.612 20.688L20.064 16.572L18.468 20.688H21.612Z" fill="#CECECE"/>
</g>
<defs>
<clipPath id="clip0_762_11444">
<rect width="24" height="24" fill="white"/>
</clipPath>
</defs>
</svg>
