<svg width="752" height="160" viewBox="0 0 752 160" fill="none" xmlns="http://www.w3.org/2000/svg">
<path d="M543.559 103.67C549.308 103.67 554.14 101.591 558.054 97.4315C561.969 93.2724 563.926 87.8289 563.926 81.101V80.734C563.926 74.1285 561.969 68.7461 558.054 64.5871C554.14 60.428 549.308 58.3485 543.559 58.3485C540.745 58.3485 538.115 58.8989 535.669 59.9999C533.222 61.1008 531.082 62.691 529.247 64.7706C527.412 66.7278 525.944 69.052 524.843 71.7431C523.865 74.4343 523.375 77.4313 523.375 80.734V81.101C523.375 84.4038 523.865 87.4619 524.843 90.2754C525.944 92.9666 527.412 95.3519 529.247 97.4315C531.082 99.3887 533.222 100.918 535.669 102.019C538.115 103.12 540.745 103.67 543.559 103.67ZM489.247 36.537C489.247 33.6865 491.557 31.3757 494.408 31.3757H518.948C521.798 31.3757 524.109 33.6865 524.109 36.537V44.5868C525.822 42.5073 527.657 40.5501 529.614 38.7152C531.571 36.8803 533.712 35.2901 536.036 33.9445C538.482 32.4766 541.174 31.3145 544.109 30.4583C547.168 29.602 550.531 29.1738 554.201 29.1738C560.073 29.1738 565.639 30.3971 570.899 32.8436C576.281 35.1678 580.99 38.5317 585.027 42.9355C589.064 47.3392 592.244 52.7215 594.569 59.0824C597.015 65.4434 598.238 72.5994 598.238 80.5506V80.9175C598.238 88.991 597.015 96.2694 594.569 102.753C592.244 109.114 589.064 114.557 585.027 119.083C581.113 123.487 576.464 126.912 571.082 129.358C565.822 131.683 560.256 132.845 554.385 132.845C550.593 132.845 547.168 132.417 544.109 131.56C541.174 130.826 538.482 129.848 536.036 128.624C533.589 127.279 531.388 125.75 529.43 124.037C527.473 122.202 525.699 120.368 524.109 118.533V154.84C524.109 157.69 521.798 160.001 518.948 160.001H494.408C491.557 160.001 489.247 157.69 489.247 154.84V36.537Z" fill="black"/>
<path d="M311.914 36.537C311.914 33.6865 314.224 31.3757 317.075 31.3757H341.615C344.465 31.3757 346.776 33.6865 346.776 36.537V44.9538C349.957 40.7948 353.932 37.125 358.703 33.9445C363.474 30.7641 369.345 29.1738 376.318 29.1738C382.923 29.1738 388.673 30.5806 393.566 33.3941C398.459 36.2075 402.251 40.1831 404.942 45.3208C409.223 40.3054 413.994 36.391 419.254 33.5775C424.514 30.6417 430.814 29.1738 438.153 29.1738C448.795 29.1738 457.113 32.3543 463.107 38.7152C469.101 44.9538 472.098 53.8836 472.098 65.5045V125.482C472.098 128.332 469.788 130.643 466.937 130.643H442.397C439.547 130.643 437.236 128.332 437.236 125.482V76.6973C437.236 71.1927 436.012 67.0947 433.566 64.4036C431.119 61.5901 427.817 60.1834 423.658 60.1834C419.499 60.1834 416.073 61.5901 413.382 64.4036C410.691 67.0947 409.346 71.1927 409.346 76.6973V125.482C409.346 128.332 407.035 130.643 404.184 130.643H379.644C376.794 130.643 374.483 128.332 374.483 125.482V76.6973C374.483 71.1927 373.26 67.0947 370.813 64.4036C368.367 61.5901 365.064 60.1834 360.905 60.1834C356.746 60.1834 353.321 61.5901 350.629 64.4036C348.061 67.0947 346.776 71.1927 346.776 76.6973V125.482C346.776 128.332 344.465 130.643 341.615 130.643H317.075C314.224 130.643 311.914 128.332 311.914 125.482V36.537Z" fill="black"/>
<path d="M243.77 111.001C248.908 111.001 253.067 109.534 256.248 106.598C259.428 103.662 261.018 99.6864 261.018 94.671V90.0838C259.306 89.3499 257.226 88.7382 254.78 88.2489C252.455 87.7596 250.009 87.515 247.44 87.515C242.302 87.515 238.327 88.6771 235.513 91.0013C232.822 93.2031 231.477 96.1389 231.477 99.8087V100.176C231.477 103.601 232.639 106.292 234.963 108.249C237.287 110.084 240.223 111.001 243.77 111.001ZM231.293 132.837C226.523 132.837 222.119 132.164 218.082 130.818C214.045 129.473 210.498 127.515 207.44 124.947C204.504 122.378 202.18 119.197 200.467 115.405C198.755 111.613 197.898 107.209 197.898 102.194V101.827C197.898 96.6894 198.816 92.1633 200.651 88.2489C202.608 84.3345 205.238 81.0929 208.541 78.5241C211.966 75.9552 216.064 73.998 220.834 72.6524C225.605 71.3068 230.926 70.6341 236.798 70.6341C241.446 70.6341 245.85 71.0622 250.009 71.9185C254.29 72.6524 257.838 73.5087 260.651 74.4873V72.8359C260.651 67.6982 259 63.7227 255.697 60.9092C252.517 58.0957 247.562 56.6889 240.835 56.6889C235.575 56.6889 230.804 57.1783 226.523 58.1569C223.97 58.7402 221.396 59.454 218.801 60.2982C215.92 61.2349 212.767 59.6914 211.92 56.7832L207.633 42.0515C206.897 39.5222 208.179 36.8306 210.658 35.9399C214.98 34.3869 219.473 33.1075 224.137 32.1015C230.498 30.6336 237.96 29.8997 246.523 29.8997C255.452 29.8997 262.975 30.9394 269.092 33.019C275.33 35.0985 280.407 38.0955 284.321 42.0099C288.113 45.6797 290.804 50.1445 292.395 55.4045C294.107 60.5422 294.963 66.5973 294.963 73.5699V125.473C294.963 128.324 292.653 130.635 289.802 130.635H265.629C262.779 130.635 260.468 128.324 260.468 125.473V120.359C257.043 124.151 252.945 127.21 248.174 129.534C243.526 131.736 237.899 132.837 231.293 132.837Z" fill="black"/>
<path d="M162.641 132.663C152.121 132.663 143.925 130.156 138.054 125.14C132.182 120.125 129.246 111.685 129.246 99.819V59.4516H122.664C119.814 59.4516 117.503 57.1408 117.503 54.2902V36.5392C117.503 33.6887 119.814 31.3779 122.664 31.3779H129.246V11.4013C129.246 8.5508 131.557 6.23999 134.407 6.23999H158.947C161.798 6.23999 164.109 8.5508 164.109 11.4013V31.3779H182.067C184.917 31.3779 187.228 33.6887 187.228 36.5392V54.2902C187.228 57.1408 184.917 59.4516 182.067 59.4516H164.109V93.0299C164.109 96.5774 164.904 99.1462 166.494 100.736C168.084 102.204 170.47 102.938 173.65 102.938C175.974 102.938 178.237 102.632 180.439 102.021C183.513 101.167 186.861 103.304 186.861 106.494V123.892C186.861 125.791 185.829 127.561 184.091 128.327C181.628 129.412 178.943 130.307 176.036 131.012C171.999 132.113 167.534 132.663 162.641 132.663Z" fill="black"/>
<path d="M58.1719 132.846C46.6733 132.846 35.7252 131.072 25.3276 127.524C16.6661 124.534 8.83039 120.284 1.82038 114.773C-0.370771 113.05 -0.590911 109.863 1.19828 107.726L14.5643 91.7612C16.3654 89.6099 19.546 89.3086 21.839 90.9254C33.543 99.1777 46.0821 103.304 59.4563 103.304C64.2269 103.304 67.8355 102.57 70.282 101.102C72.8509 99.5118 74.1353 97.31 74.1353 94.4965V94.1295C74.1353 92.7839 73.8295 91.6218 73.2178 90.6432C72.6062 89.5423 71.4441 88.5025 69.7316 87.5239C68.1413 86.5453 65.9395 85.6279 63.126 84.7716C60.4349 83.793 56.8874 82.8144 52.4837 81.8358C45.6335 80.2455 39.2726 78.533 33.401 76.6981C27.5294 74.7409 22.3918 72.2944 17.9881 69.3586C13.7067 66.3004 10.2816 62.5695 7.71274 58.1658C5.26623 53.6397 4.04298 48.0739 4.04298 41.4683V41.1014C4.04298 35.1074 5.14391 29.6028 7.34576 24.5874C9.66994 19.5721 12.9727 15.2295 17.2541 11.5598C21.6578 7.88999 26.9178 5.07651 33.034 3.11929C39.1503 1.03976 46.0617 0 53.7682 0C64.7774 0 74.5634 1.46791 83.1262 4.40372C90.2396 6.70806 96.7785 9.95607 102.743 14.1477C104.972 15.7143 105.386 18.7962 103.812 21.0198L91.7974 37.989C90.15 40.3158 86.9375 40.8481 84.507 39.358C79.9929 36.5905 75.3736 34.4193 70.649 32.8444C64.5328 30.6425 58.6 29.5416 52.8507 29.5416C48.5693 29.5416 45.3277 30.3367 43.1259 31.927C41.0463 33.5172 40.0066 35.4744 40.0066 37.7986V38.1656C40.0066 39.6335 40.3124 40.9179 40.924 42.0188C41.658 43.1197 42.8201 44.1595 44.4103 45.1381C46.1228 45.9944 48.3858 46.9118 51.1993 47.8904C54.1351 48.7467 57.8049 49.6642 62.2086 50.6428C69.5481 52.233 76.1536 54.129 82.0252 56.3309C88.0192 58.4104 93.0957 60.9793 97.2547 64.0374C101.414 67.0956 104.594 70.8265 106.796 75.2302C108.998 79.5116 110.099 84.6493 110.099 90.6432V91.0102C110.099 97.6158 108.814 103.487 106.246 108.625C103.799 113.763 100.313 118.166 95.7868 121.836C91.2608 125.384 85.8173 128.136 79.4564 130.093C73.0955 131.928 66.0007 132.846 58.1719 132.846Z" fill="black"/>
<path d="M710.515 133.597C703.204 133.597 696.432 132.279 690.2 129.642C683.968 126.886 678.574 123.23 674.02 118.676C669.585 114.121 666.05 108.788 663.413 102.675C660.896 96.4427 659.638 89.9107 659.638 83.0791V82.7195C659.638 75.8879 660.896 69.4158 663.413 63.3032C666.05 57.0709 669.645 51.6775 674.2 47.123C678.754 42.4487 684.207 38.7932 690.559 36.1564C697.031 33.3998 704.103 32.0215 711.773 32.0215C721.841 32.0215 730.23 33.9991 736.942 37.9542C742.266 41.0916 746.798 45.0586 750.539 49.8552C752.202 51.9878 751.623 55.0245 749.453 56.639L734.26 67.9455C731.97 69.65 728.768 69.1275 726.761 67.0974C725.355 65.6755 723.895 64.4707 722.38 63.483C719.624 61.6852 716.148 60.7863 711.953 60.7863C709.196 60.7863 706.62 61.3856 704.223 62.5841C701.945 63.6628 699.968 65.2209 698.29 67.2584C696.612 69.1761 695.294 71.4533 694.335 74.0901C693.376 76.607 692.897 79.3636 692.897 82.3599V82.7195C692.897 85.8357 693.376 88.7721 694.335 91.5287C695.294 94.1655 696.612 96.5027 698.29 98.5402C699.968 100.458 702.005 102.016 704.402 103.214C706.799 104.293 709.436 104.832 712.313 104.832C716.388 104.832 719.803 103.934 722.56 102.136C724.311 101.041 726.04 99.7028 727.746 98.1199C729.694 96.3135 732.65 95.9532 734.801 97.5115L749.788 108.368C752.046 110.004 752.617 113.158 750.854 115.319C746.871 120.201 742.174 124.257 736.762 127.485C729.931 131.56 721.182 133.597 710.515 133.597Z" fill="black"/>
<path d="M612.019 50.3786C612.019 47.5281 614.33 45.2173 617.18 45.2173H641.016C643.866 45.2173 646.177 47.5281 646.177 50.3786V126.081C646.177 128.932 643.866 131.243 641.016 131.243H617.18C614.33 131.243 612.019 128.932 612.019 126.081V50.3786Z" fill="black"/>
<path d="M648.227 19.2666C648.227 29.9072 639.601 38.5332 628.961 38.5332C618.32 38.5332 609.694 29.9072 609.694 19.2666C609.694 8.62595 618.32 0 628.961 0C639.601 0 648.227 8.62595 648.227 19.2666Z" fill="black"/>
</svg>
