<svg width="56" height="56" viewBox="0 0 56 56" fill="none" xmlns="http://www.w3.org/2000/svg">
<circle cx="28" cy="28" r="28" fill="#B4E600"/>
<g filter="url(#filter0_d_1645_15962)">
<path d="M34.1953 11.25C38.5057 11.25 42 14.7663 42 19.1038C42 21.6225 40.8215 23.8639 38.9894 25.3011C40.5107 26.8188 42 29.1298 42 32.4126C42 39.2726 36.1998 42.2937 33.537 43.304C30.2553 44.5489 26.381 45 22.8047 45C18.4943 45 15 41.4837 15 37.1462C15 34.6815 16.1286 32.4823 17.8938 31.0424C16.4166 29.4407 15.066 27.1278 15.0023 23.9919L15 23.7599L15.0016 23.5642C15.0744 19.4743 17.4197 16.7036 19.4029 15.1953C21.3056 13.7483 23.457 12.9529 25.0836 12.4844C28.4118 11.5258 32.027 11.25 34.1953 11.25Z" fill="url(#paint0_linear_1645_15962)"/>
<path d="M34.1953 11.4824C38.3757 11.4824 41.7674 14.8933 41.7676 19.1035C41.7676 21.548 40.6237 23.7234 38.8457 25.1182L38.6387 25.2803L38.8252 25.4658C40.3159 26.9529 41.7674 29.2079 41.7676 32.4121C41.7675 39.1131 36.1039 42.0806 33.4541 43.0859C30.2083 44.3173 26.365 44.7676 22.8047 44.7676C18.6243 44.7676 15.2326 41.3567 15.2324 37.1465C15.2324 34.7543 16.3279 32.6201 18.041 31.2227L18.2324 31.0664L18.0645 30.8848C16.7063 29.412 15.4623 27.3328 15.2607 24.5527L15.2354 23.9873L15.2324 23.7617L15.2344 23.5684C15.3055 19.5737 17.5952 16.8629 19.5439 15.3809C21.4139 13.9587 23.5345 13.1729 25.1484 12.708C28.4495 11.7573 32.0414 11.4824 34.1953 11.4824Z" stroke="white" stroke-opacity="0.7" stroke-width="0.465517" stroke-linecap="round" style="mix-blend-mode:overlay"/>
</g>
<path d="M27.2557 23.9856C27.3477 24.5812 27.2781 25.1804 27.0603 25.669C26.8424 26.1575 26.4916 26.5012 26.0746 26.6346C25.6576 26.768 25.2037 26.6816 24.7993 26.3921C24.395 26.1025 24.0686 25.63 23.8823 25.0646C23.696 24.4991 23.6628 23.8804 23.7892 23.3263C23.9155 22.7722 24.1925 22.3216 24.5674 22.0603C24.9422 21.799 25.3886 21.7453 25.8216 21.9095C26.2545 22.0737 26.6436 22.4443 26.9147 22.9506L25.5045 24.256L27.2557 23.9856Z" fill="#202020"/>
<path d="M32.5888 22.9856C32.6807 23.5812 32.6111 24.1804 32.3933 24.669C32.1755 25.1575 31.8246 25.5012 31.4076 25.6346C30.9906 25.768 30.5367 25.6816 30.1323 25.3921C29.728 25.1025 29.4016 24.63 29.2153 24.0646C29.029 23.4991 28.9958 22.8804 29.1222 22.3263C29.2485 21.7722 29.5255 21.3216 29.9004 21.0603C30.2752 20.799 30.7217 20.7453 31.1546 20.9095C31.5875 21.0737 31.9766 21.4443 32.2477 21.9506L30.8375 23.256L32.5888 22.9856Z" fill="#202020"/>
<defs>
<filter id="filter0_d_1645_15962" x="9" y="5.25" width="39" height="45.75" filterUnits="userSpaceOnUse" color-interpolation-filters="sRGB">
<feFlood flood-opacity="0" result="BackgroundImageFix"/>
<feColorMatrix in="SourceAlpha" type="matrix" values="0 0 0 0 0 0 0 0 0 0 0 0 0 0 0 0 0 0 127 0" result="hardAlpha"/>
<feOffset/>
<feGaussianBlur stdDeviation="3"/>
<feComposite in2="hardAlpha" operator="out"/>
<feColorMatrix type="matrix" values="0 0 0 0 0 0 0 0 0 0 0 0 0 0 0 0 0 0 0.2 0"/>
<feBlend mode="multiply" in2="BackgroundImageFix" result="effect1_dropShadow_1645_15962"/>
<feBlend mode="normal" in="SourceGraphic" in2="effect1_dropShadow_1645_15962" result="shape"/>
</filter>
<linearGradient id="paint0_linear_1645_15962" x1="25.2414" y1="13.1121" x2="34.5517" y2="42.4397" gradientUnits="userSpaceOnUse">
<stop stop-color="white" stop-opacity="0.2"/>
<stop offset="1" stop-color="white" stop-opacity="0.8"/>
</linearGradient>
</defs>
</svg>
