<svg width="48" height="48" viewBox="0 0 48 48" fill="none" xmlns="http://www.w3.org/2000/svg">
<g opacity="0.8">
<circle cx="24" cy="24" r="23.5" fill="#171717" stroke="#383838"/>
<path d="M14.5244 40.1248C11.4817 40.1248 9.84326 38.4864 9.84326 35.4436V30.1071C9.84326 26.8303 10.8731 25.5664 13.8691 25.5664H15.6947C16.865 25.5664 16.7246 24.8174 15.882 23.8811L14.618 22.43C12.5583 20.0426 11.5285 17.6552 11.5753 15.5487C11.5753 10.7271 14.9457 7.40344 21.6866 7.40344H33.5299C36.5727 7.40344 38.2111 9.04185 38.2111 12.0846V17.2807C38.2111 20.5107 37.0408 21.9619 34.3725 21.9619H32.5469C31.4702 21.9619 31.7043 22.664 32.4065 23.5066L33.764 25.0982C35.8237 27.5324 36.8536 29.873 36.8536 32.0264C36.8067 36.8011 33.3895 40.1248 26.6018 40.1248H14.5244Z" fill="#E1F904"/>
<circle cx="21.7558" cy="17.533" r="1.70207" fill="#171717"/>
<circle cx="27.4311" cy="17.533" r="1.70207" fill="#171717"/>
</g>
</svg>
