<svg width="444" height="100" viewBox="0 0 444 100" fill="none" xmlns="http://www.w3.org/2000/svg">
<path d="M397.468 99.9988C393.582 99.9988 390.001 99.5035 386.725 98.5131C384.708 97.8886 382.751 97.1431 380.854 96.2764C378.968 95.4143 378.227 93.1729 379.068 91.2772L382.479 83.5901C383.457 81.3836 386.142 80.5912 388.397 81.4525C388.756 81.5895 389.113 81.7146 389.468 81.8276C391.144 82.4371 392.592 82.7419 393.811 82.7419C394.877 82.7419 395.792 82.5514 396.554 82.1705C396.828 82.0706 397.095 81.934 397.353 81.7605C398.466 81.0127 398.54 79.4788 398.043 78.2333L376.8 25.0261C375.751 22.399 377.686 19.543 380.515 19.543H394.465C396.189 19.543 397.72 20.6481 398.262 22.285L409.696 56.7995L420.476 22.3485C420.998 20.6793 422.544 19.543 424.293 19.543H437.867C440.66 19.543 442.593 22.3325 441.612 24.9475L421.011 79.8848C419.639 83.4657 418.23 86.5133 416.782 89.0275C415.334 91.6179 413.696 93.7132 411.868 95.3131C410.039 96.9131 407.944 98.094 405.582 98.8559C403.22 99.6178 400.515 99.9988 397.468 99.9988Z" fill="black"/>
<path d="M339.808 64.5711C343.389 64.5711 346.399 63.2759 348.837 60.6854C351.275 58.095 352.494 54.7046 352.494 50.5142V50.2856C352.494 46.1714 351.275 42.8191 348.837 40.2286C346.399 37.6382 343.389 36.343 339.808 36.343C338.056 36.343 336.418 36.6858 334.894 37.3716C333.37 38.0573 332.037 39.0477 330.894 40.3429C329.751 41.562 328.837 43.0096 328.151 44.6857C327.542 46.3619 327.237 48.2285 327.237 50.2856V50.5142C327.237 52.5713 327.542 54.476 328.151 56.2284C328.837 57.9045 329.751 59.3902 330.894 60.6854C332.037 61.9045 333.37 62.8568 334.894 63.5425C336.418 64.2282 338.056 64.5711 339.808 64.5711ZM305.98 23.5433C305.98 21.3341 307.771 19.5433 309.98 19.5433H323.694C325.903 19.5433 327.694 21.3341 327.694 23.5433V27.7717C328.761 26.4765 329.904 25.2575 331.123 24.1146C332.342 22.9718 333.675 21.9813 335.123 21.1433C336.646 20.229 338.323 19.5052 340.151 18.9719C342.056 18.4385 344.151 18.1719 346.437 18.1719C350.094 18.1719 353.561 18.9338 356.837 20.4575C360.189 21.9051 363.122 24.0004 365.637 26.7432C368.151 29.486 370.132 32.8383 371.58 36.8001C373.103 40.762 373.865 45.219 373.865 50.1713V50.3999C373.865 55.4284 373.103 59.9617 371.58 63.9997C370.132 67.9615 368.151 71.3519 365.637 74.1709C363.199 76.9137 360.303 79.047 356.951 80.5708C353.675 82.0184 350.208 82.7422 346.551 82.7422C344.189 82.7422 342.056 82.4756 340.151 81.9422C338.323 81.4851 336.646 80.8756 335.123 80.1137C333.599 79.2756 332.227 78.3232 331.008 77.2566C329.789 76.1138 328.685 74.9709 327.694 73.8281V95.6562C327.694 97.8654 325.903 99.6562 323.694 99.6562H309.98C307.771 99.6562 305.98 97.8654 305.98 95.6562V23.5433Z" fill="black"/>
<path d="M195.528 23.5433C195.528 21.3341 197.319 19.5433 199.528 19.5433H213.242C215.451 19.5433 217.242 21.3341 217.242 23.5433V28.0003C219.223 25.4098 221.699 23.1242 224.67 21.1433C227.642 19.1623 231.299 18.1719 235.642 18.1719C239.756 18.1719 243.337 19.048 246.385 20.8004C249.432 22.5528 251.794 25.0289 253.47 28.2288C256.137 25.1051 259.108 22.667 262.385 20.9147C265.661 19.0861 269.584 18.1719 274.156 18.1719C280.784 18.1719 285.965 20.1528 289.699 24.1146C293.432 28.0003 295.299 33.5621 295.299 40.8001V77.3708C295.299 79.58 293.508 81.3708 291.299 81.3708H277.584C275.375 81.3708 273.584 79.5799 273.584 77.3708V47.7714C273.584 44.3429 272.823 41.7905 271.299 40.1144C269.775 38.362 267.718 37.4858 265.127 37.4858C262.537 37.4858 260.404 38.362 258.727 40.1144C257.051 41.7905 256.213 44.3429 256.213 47.7714V77.3708C256.213 79.5799 254.422 81.3708 252.213 81.3708H238.499C236.29 81.3708 234.499 79.5799 234.499 77.3708V47.7714C234.499 44.3429 233.737 41.7905 232.213 40.1144C230.689 38.362 228.632 37.4858 226.042 37.4858C223.451 37.4858 221.318 38.362 219.642 40.1144C218.042 41.7905 217.242 44.3429 217.242 47.7714V77.3708C217.242 79.5799 215.451 81.3708 213.242 81.3708H199.528C197.319 81.3708 195.528 79.5799 195.528 77.3708V23.5433Z" fill="black"/>
<path d="M153.085 69.1345C156.285 69.1345 158.876 68.2203 160.857 66.3917C162.838 64.5632 163.828 62.087 163.828 58.9633V56.1062C162.762 55.649 161.466 55.2681 159.942 54.9633C158.495 54.6586 156.971 54.5062 155.371 54.5062C152.171 54.5062 149.695 55.23 147.943 56.6776C146.266 58.049 145.428 59.8775 145.428 62.1632V62.3918C145.428 64.5251 146.152 66.2012 147.6 67.4203C149.047 68.5631 150.876 69.1345 153.085 69.1345ZM145.314 82.7343C142.343 82.7343 139.6 82.3153 137.086 81.4772C134.571 80.6391 132.362 79.4201 130.457 77.8201C128.628 76.2201 127.181 74.2392 126.114 71.8773C125.047 69.5155 124.514 66.7727 124.514 63.6489V63.4203C124.514 60.2204 125.086 57.4014 126.228 54.9633C127.447 52.5253 129.086 50.5063 131.143 48.9063C133.276 47.3063 135.828 46.0873 138.8 45.2492C141.771 44.4111 145.085 43.9921 148.743 43.9921C151.638 43.9921 154.381 44.2588 156.971 44.7921C159.638 45.2492 161.847 45.7825 163.6 46.3921V45.3635C163.6 42.1635 162.571 39.6874 160.514 37.935C158.533 36.1827 155.447 35.3065 151.257 35.3065C147.981 35.3065 145.009 35.6113 142.343 36.2208C141.021 36.5228 139.69 36.881 138.35 37.2953C136.108 37.9886 133.664 36.7959 133.008 34.542L130.774 26.8661C130.203 24.9059 131.197 22.8174 133.126 22.1487C135.613 21.2864 138.19 20.5677 140.857 19.9925C144.819 19.0782 149.466 18.6211 154.8 18.6211C160.362 18.6211 165.047 19.2687 168.857 20.5639C172.742 21.8591 175.904 23.7258 178.342 26.1638C180.704 28.4495 182.38 31.2304 183.371 34.5065C184.438 37.7065 184.971 41.4778 184.971 45.8206V77.3629C184.971 79.572 183.18 81.3629 180.971 81.3629H167.485C165.276 81.3629 163.485 79.572 163.485 77.3629V74.963C161.352 77.3249 158.8 79.2296 155.828 80.6772C152.933 82.0486 149.428 82.7343 145.314 82.7343Z" fill="black"/>
<path d="M102.554 82.6282C96.0017 82.6282 90.897 81.0664 87.2398 77.9426C83.5827 74.8189 81.7542 69.5618 81.7542 62.1714V37.029H78.4399C76.2308 37.029 74.4399 35.2382 74.4399 33.029V23.5436C74.4399 21.3345 76.2308 19.5436 78.4399 19.5436H81.7542V7.88672C81.7542 5.67758 83.545 3.88672 85.7542 3.88672H99.4683C101.677 3.88672 103.468 5.67758 103.468 7.88672V19.5436H113.868C116.077 19.5436 117.868 21.3345 117.868 23.5436V33.029C117.868 35.2382 116.077 37.029 113.868 37.029H103.468V57.9429C103.468 60.1524 103.964 61.7524 104.954 62.7429C105.944 63.6571 107.43 64.1143 109.411 64.1143C110.859 64.1143 112.268 63.9238 113.64 63.5429C115.554 63.011 117.64 64.342 117.64 66.3292V76.6963C117.64 78.1678 116.841 79.5433 115.483 80.1123C114.068 80.7057 112.54 81.2015 110.897 81.5997C108.383 82.2854 105.602 82.6282 102.554 82.6282Z" fill="black"/>
<path d="M37.4855 82.7415C30.3236 82.7415 23.5046 81.6367 17.0285 79.4272C11.8803 77.6499 7.20041 75.1577 2.98893 71.9507C1.27041 70.642 1.10145 68.1689 2.48808 66.5127L9.83162 57.7413C11.2275 56.0741 13.6899 55.8442 15.4863 57.0694C22.5954 61.9176 30.1951 64.3418 38.2854 64.3418C41.2569 64.3418 43.5045 63.8846 45.0283 62.9704C46.6283 61.9799 47.4282 60.6085 47.4282 58.8562V58.6276C47.4282 57.7895 47.2378 57.0657 46.8568 56.4562C46.4759 55.7705 45.7521 55.1229 44.6854 54.5134C43.6949 53.9039 42.3235 53.3324 40.5711 52.7991C38.895 52.1896 36.6855 51.5801 33.9426 50.9706C29.676 49.9801 25.7141 48.9135 22.057 47.7706C18.3999 46.5516 15.1999 45.0278 12.4571 43.1993C9.79041 41.2945 7.65709 38.9708 6.0571 36.228C4.5333 33.409 3.7714 29.9424 3.7714 25.8281V25.5996C3.7714 21.8663 4.45711 18.4378 5.82853 15.314C7.27614 12.1903 9.33327 9.48555 11.9999 7.19987C14.7428 4.9142 18.0189 3.16185 21.8284 1.94282C25.6379 0.647607 29.9426 0 34.7426 0C41.5997 0 47.6949 0.91427 53.0282 2.74281C57.2188 4.10031 61.0893 5.98362 64.6398 8.39275C66.387 9.57832 66.7064 11.9705 65.4863 13.6938L58.8829 23.0201C57.6062 24.8233 55.1183 25.2314 53.2152 24.1089C50.6179 22.5769 47.9651 21.3596 45.2568 20.4568C41.4473 19.0854 37.7521 18.3997 34.1712 18.3997C31.5045 18.3997 29.4855 18.8949 28.1141 19.8854C26.8189 20.8758 26.1712 22.0949 26.1712 23.5425V23.771C26.1712 24.6853 26.3617 25.4853 26.7427 26.171C27.1998 26.8567 27.9236 27.5043 28.9141 28.1138C29.9807 28.6471 31.3903 29.2185 33.1426 29.8281C34.9712 30.3614 37.2569 30.9328 39.9997 31.5423C44.5711 32.5328 48.6854 33.7137 52.3425 35.0851C56.0758 36.3803 59.2377 37.9803 61.8281 39.885C64.4186 41.7898 66.3995 44.1135 67.771 46.8564C69.1424 49.523 69.8281 52.7229 69.8281 56.4562V56.6848C69.8281 60.799 69.0281 64.4561 67.4281 67.656C65.9043 70.8559 63.7329 73.5988 60.9139 75.8844C58.0948 78.0939 54.7044 79.8082 50.7425 81.0272C46.7806 82.17 42.3616 82.7415 37.4855 82.7415Z" fill="black"/>
</svg>
