<svg width="109" height="40" viewBox="0 0 109 40" fill="none" xmlns="http://www.w3.org/2000/svg">
<path d="M3.69 24.87C5.28 27.81 6.9 28.38 8.16 28.38C10.89 28.38 11.94 27.18 11.94 25.53C11.94 21.57 1.02 23.34 1.02 15.39C1.02 11.46 4.11 9 8.64 9C11.19 9 14.58 10.56 16.11 14.55L12.12 16.02C11.07 13.38 9.63 12.87 8.64 12.87C6.57 12.87 5.55 14.01 5.55 15.39C5.55 19.32 16.47 18.15 16.47 25.53C16.47 29.49 13.35 32.25 8.16 32.25C4.77 32.25 1.95 30.21 0 26.97L3.69 24.87Z" fill="white"/>
<path d="M21.2168 32.04V20.94H18.2468V17.04H21.2168V11.73H25.7768V17.04H29.2868V20.94H25.7768V32.04H21.2168Z" fill="white"/>
<path d="M37.4152 32.07C33.2752 32.07 30.6352 28.98 30.6352 24.6C30.6352 20.22 33.2752 17.13 37.4152 17.13C38.6452 17.13 40.2952 17.58 41.3152 18.96V17.1H45.8752V32.04H41.3152V30.27C40.2952 31.62 38.6452 32.07 37.4152 32.07ZM38.1352 28.38C39.9052 28.38 41.2852 26.79 41.3152 24.6C41.2852 22.41 39.9052 20.82 38.1352 20.82C36.2752 20.82 35.1952 22.2 35.1952 24.6C35.1952 27 36.2752 28.38 38.1352 28.38Z" fill="white"/>
<path d="M68.1345 24.39C68.1345 22.32 67.1745 21 65.7945 21C64.3845 21 63.4245 22.59 63.4245 24.39V32.04H58.8645V24.39C58.8645 22.32 57.9345 21 56.5845 21C55.1445 21 54.1545 22.32 54.1545 24.39V32.04H49.5945V17.13H54.1545V19.29C55.0245 17.91 56.2845 17.22 57.6345 17.22C59.2845 17.22 60.9045 18.6 61.8045 20.1C62.9145 18.6 64.9545 17.22 66.6045 17.22C70.5045 17.22 72.6945 20.22 72.6945 24.39V32.04H68.1345V24.39Z" fill="white"/>
<path d="M84.187 28.29C86.017 28.29 87.097 26.91 87.097 24.51C87.097 22.11 86.017 20.73 84.187 20.73C82.327 20.73 80.917 22.32 80.917 24.51C80.917 26.7 82.327 28.29 84.187 28.29ZM84.847 17.04C88.987 17.04 91.657 20.13 91.657 24.51C91.657 28.92 88.987 32.01 84.847 32.01C84.457 32.01 82.297 31.95 80.917 30.03V38.25H76.357V17.07H80.917V19.02C82.297 17.25 84.457 17.04 84.847 17.04Z" fill="white"/>
<path d="M99.4043 37.98H94.4243L97.8743 30.09L91.9043 17.13H96.9443L100.244 25.14L103.484 17.13H108.464L102.914 29.94L99.4043 37.98Z" fill="white"/>
</svg>
