<svg width="140" height="140" viewBox="0 0 140 140" fill="none" xmlns="http://www.w3.org/2000/svg">
<path d="M84.9999 37.6369C95.2172 37.6369 103.5 45.9718 103.5 56.2533C103.5 62.2236 100.706 67.5366 96.3637 70.9432C99.9697 74.5407 103.5 80.0188 103.5 87.8001C103.5 104.061 89.7512 111.222 83.4393 113.617C75.6606 116.568 66.4772 117.637 57.9999 117.637C47.7826 117.637 39.4999 109.302 39.4999 99.0206C39.4999 93.1782 42.1751 87.9653 46.3593 84.5522C42.8578 80.7556 39.6563 75.2732 39.5053 67.8399L39.4999 67.29L39.5038 66.8262C39.6763 57.1317 45.2355 50.564 49.9364 46.9888C54.4465 43.5588 59.5462 41.6735 63.4017 40.5629C71.2909 38.2906 79.8601 37.6369 84.9999 37.6369Z" fill="#969696"/>
<path d="M67.466 65.9329C67.7007 67.4527 67.5231 68.9818 66.9672 70.2285C66.4114 71.4752 65.516 72.3523 64.452 72.6926C63.3879 73.0329 62.2295 72.8126 61.1978 72.0737C60.166 71.3348 59.333 70.129 58.8576 68.6861C58.3822 67.2433 58.2976 65.6644 58.6201 64.2505C58.9425 62.8367 59.6494 61.6867 60.6058 61.0199C61.5623 60.3531 62.7016 60.2162 63.8063 60.6352C64.911 61.0542 65.904 61.9998 66.5958 63.2918L62.9972 66.6228L67.466 65.9329Z" fill="#171717"/>
<path d="M84.0725 62.3704C84.3071 63.8902 84.1296 65.4193 83.5737 66.666C83.0178 67.9127 82.1225 68.7898 81.0584 69.1301C79.9943 69.4704 78.836 69.2501 77.8042 68.5112C76.7725 67.7723 75.9394 66.5665 75.464 65.1236C74.9886 63.6808 74.9041 62.1019 75.2265 60.688C75.5489 59.2742 76.2558 58.1242 77.2123 57.4574C78.1688 56.7906 79.308 56.6537 80.4127 57.0727C81.5175 57.4917 82.5104 58.4373 83.2022 59.7293L79.6037 63.0603L84.0725 62.3704Z" fill="#171717"/>
<path d="M76.9989 48.2219C78.8957 47.7304 80.9767 48.1472 82.3856 48.9914C82.7409 49.2043 82.8563 49.6654 82.6434 50.0207C82.4305 50.376 81.9694 50.4914 81.6141 50.2785C80.5231 49.6248 78.8539 49.2912 77.3759 49.674C75.9613 50.0406 74.6778 51.0697 74.2352 53.2824C74.1539 53.6884 73.7585 53.9515 73.3524 53.8703C72.9465 53.7889 72.6833 53.3936 72.7645 52.9875C73.3221 50.2006 75.0386 48.7299 76.9989 48.2219Z" fill="black"/>
<path d="M59.4989 53.0969C61.3957 52.6054 63.4767 53.0222 64.8856 53.8664C65.2409 54.0793 65.3563 54.5404 65.1434 54.8957C64.9305 55.251 64.4694 55.3664 64.1141 55.1535C63.0231 54.4998 61.3539 54.1662 59.8759 54.549C58.4613 54.9156 57.1778 55.9447 56.7352 58.1574C56.6539 58.5634 56.2585 58.8265 55.8524 58.7453C55.4465 58.6639 55.1833 58.2686 55.2645 57.8625C55.8221 55.0756 57.5386 53.6049 59.4989 53.0969Z" fill="black"/>
<path d="M27.0548 57.2919C26.7755 56.8154 26.9353 56.2028 27.4118 55.9235L30.7465 53.9689C31.223 53.6896 31.8356 53.8495 32.1149 54.3259L34.0329 57.5982C34.3122 58.0747 34.1523 58.6873 33.6759 58.9666L30.3412 60.9212C29.8647 61.2005 29.252 61.0406 28.9728 60.5641L27.0548 57.2919ZM23.1166 49.5669C22.7626 49.1213 22.8514 48.4705 23.3118 48.136L23.4999 47.9993C25.4293 46.7565 25.7023 46.154 26.2545 45.1869C26.7946 44.1989 26.8205 43.2884 26.3322 42.4554L26.2956 42.393C25.8806 41.685 25.3134 41.29 24.5939 41.2081C23.8623 41.1054 23.0383 41.3226 22.1221 41.8596C21.2475 42.3723 20.5287 43.0314 19.9657 43.837C19.5879 44.3899 19.2685 45.0308 19.0075 45.7598C18.8151 46.297 18.2444 46.6193 17.6996 46.4497L14.8497 45.5623C14.3556 45.4085 14.0564 44.9018 14.2002 44.4047C14.5497 43.1972 15.0718 42.0518 15.7664 40.9686C16.6497 39.6115 17.9451 38.4326 19.6526 37.4317C20.7771 36.7726 21.8829 36.3203 22.97 36.0748C24.0657 35.7963 25.1116 35.7428 26.1075 35.9145C27.0912 36.0653 27.998 36.443 28.828 37.0477C29.6667 37.6193 30.3911 38.4257 31.0014 39.4669L31.038 39.5293C31.6239 40.5289 31.9577 41.4803 32.0396 42.3836C32.1422 43.2747 32.0589 44.1349 31.7896 44.9642C31.5411 45.7813 31.1335 46.5657 30.567 47.3175C30.1204 47.8815 29.621 48.4264 29.0688 48.9524C28.7703 49.2368 28.6582 49.6694 28.8003 50.0564L29.0499 50.7365C29.2166 51.1908 29.0342 51.6992 28.6168 51.9438L26.9007 52.9497C26.4711 53.2015 25.9217 53.0988 25.6119 52.7089L23.1166 49.5669Z" fill="#E6FF8A"/>
<path d="M38.8168 42.2535C38.9135 41.7097 39.4326 41.3473 39.9764 41.444L42.0656 41.8155C42.6094 41.9122 42.9718 42.4313 42.8751 42.9751L42.5125 45.0142C42.4158 45.558 41.8966 45.9204 41.3529 45.8237L39.2637 45.4522C38.7199 45.3555 38.3575 44.8363 38.4542 44.2926L38.8168 42.2535ZM40.2184 36.0738C40.2268 35.5276 40.672 35.0892 41.2183 35.0892H41.584C43.1825 35.3046 43.2248 35.3885 43.9612 35.1231C44.7005 34.8411 45.1295 34.3661 45.2483 33.698L45.2572 33.6479C45.3582 33.0801 45.235 32.6102 44.8876 32.2383C44.5432 31.8498 44.0036 31.5901 43.2688 31.4595C42.5673 31.3347 41.8824 31.3594 41.214 31.5334C40.8478 31.6329 40.4758 31.7803 40.0981 31.9755C39.5912 32.2376 38.9491 32.1163 38.6447 31.6337L37.8365 30.3527C37.5604 29.915 37.6608 29.3335 38.1011 29.0617C38.7748 28.6458 39.5 28.3202 40.2766 28.0846C41.3678 27.7618 42.5981 27.7221 43.9675 27.9656C44.8694 28.126 45.6669 28.3884 46.3602 28.7529C47.0731 29.1036 47.6567 29.552 48.111 30.098C48.5682 30.6272 48.8809 31.2427 49.049 31.9446C49.2367 32.6326 49.2564 33.3942 49.1079 34.2293L49.099 34.2794C48.9564 35.081 48.7011 35.742 48.3329 36.2623C47.9814 36.7856 47.5446 37.2075 47.0224 37.5282C46.5169 37.8518 45.9412 38.0854 45.2955 38.229C44.8624 38.3145 44.4145 38.3739 43.9517 38.4072C43.5404 38.4367 43.1743 38.6918 43.0312 39.0786L43.0113 39.1324C42.8434 39.5862 42.3747 39.8547 41.8983 39.77L41.004 39.6109C40.5209 39.525 40.1716 39.1014 40.1792 38.6109L40.2184 36.0738Z" fill="#A0CC00"/>
<path d="M55.2514 87.1013C54.9701 85.037 56.4155 83.1354 58.4799 82.8541L122.394 74.1443C124.459 73.863 126.36 75.3084 126.642 77.3727L128.934 94.1928C129.215 96.2571 127.77 98.1587 125.705 98.44L61.7907 107.15C59.7264 107.431 57.8249 105.986 57.5436 103.921L55.2514 87.1013Z" fill="#D9D9D9"/>
<path d="M113.207 84.8867L110.259 85.2593C109.875 85.3078 109.525 85.0362 109.477 84.6526L109.279 83.0926C109.231 82.709 109.502 82.3588 109.886 82.3103L119.148 81.1397C119.532 81.0912 119.882 81.3628 119.93 81.7464L120.128 83.3064C120.176 83.6899 119.904 84.0402 119.521 84.0886L116.572 84.4613L117.647 92.9608C117.695 93.3443 117.424 93.6945 117.04 93.743L115.064 93.9928C114.68 94.0413 114.33 93.7697 114.281 93.3861L113.207 84.8867Z" fill="#171717"/>
<path d="M103.588 89.0268C104.166 88.9537 104.595 88.7702 104.875 88.4763C105.154 88.1709 105.265 87.7984 105.21 87.3589L105.205 87.3242C105.144 86.8385 104.937 86.5005 104.584 86.3101C104.229 86.1082 103.769 86.043 103.202 86.1147L100.999 86.3931L101.367 89.3074L103.588 89.0268ZM97.353 84.5986C97.3045 84.2151 97.5762 83.8648 97.9597 83.8164L103.007 83.1784C103.944 83.06 104.751 83.0756 105.427 83.225C106.104 83.3744 106.671 83.6317 107.129 83.9969C107.934 84.6002 108.411 85.4974 108.562 86.6885L108.566 86.7232C108.685 87.66 108.557 88.4633 108.183 89.1332C107.81 89.8032 107.262 90.3483 106.54 90.7686L109.09 93.6424C109.464 94.0634 109.213 94.731 108.655 94.8015L106.458 95.0792C106.225 95.1086 105.994 95.0197 105.84 94.8424L103.175 91.7578L101.701 91.9442L102.078 94.9273C102.126 95.3108 101.854 95.661 101.471 95.7095L99.4945 95.9593C99.1109 96.0078 98.7607 95.7362 98.7122 95.3526L97.353 84.5986Z" fill="#171717"/>
<path d="M92.2451 92.2234L90.4557 88.9423L89.5216 92.5676L92.2451 92.2234ZM88.2299 85.601C88.306 85.3302 88.5369 85.1313 88.8159 85.096L91.139 84.8024C91.4181 84.7671 91.6911 84.9023 91.8323 85.1456L97.7848 95.4072C98.0362 95.8406 97.7641 96.3901 97.2671 96.4529L95.1731 96.7176C94.8909 96.7532 94.6151 96.6146 94.4755 96.3667L93.7785 95.1298C93.6389 94.882 93.3631 94.7433 93.0809 94.779L89.3341 95.2526C89.0501 95.2884 88.8166 95.4936 88.7445 95.7706L88.3901 97.1314C88.3179 97.4084 88.0844 97.6135 87.8004 97.6494L85.7793 97.9049C85.2823 97.9677 84.882 97.5032 85.0177 97.0209L88.2299 85.601Z" fill="#171717"/>
<path d="M77.4292 89.4048L74.4808 89.7775C74.0972 89.826 73.747 89.5543 73.6985 89.1708L73.5013 87.6107C73.4529 87.2272 73.7245 86.877 74.108 86.8285L83.3702 85.6578C83.7537 85.6094 84.104 85.881 84.1524 86.2645L84.3496 87.8246C84.3981 88.2081 84.1265 88.5584 83.7429 88.6068L80.7945 88.9795L81.8688 97.479C81.9172 97.8625 81.6456 98.2127 81.2621 98.2612L79.2857 98.511C78.9021 98.5595 78.5519 98.2879 78.5034 97.9043L77.4292 89.4048Z" fill="#171717"/>
<path d="M68.7635 100.262C67.6764 100.4 66.6201 100.363 65.5948 100.152C64.8079 99.9868 64.0744 99.7125 63.3943 99.3287C63.0651 99.1429 62.9817 98.7168 63.1861 98.3988L64.0398 97.0706C64.2455 96.7506 64.6679 96.6572 65.0086 96.8265C66.1563 97.3968 67.3307 97.6061 68.5319 97.4542C68.9829 97.3972 69.3153 97.2847 69.5291 97.1167C69.7529 96.9357 69.848 96.7122 69.8144 96.4462L69.81 96.4115C69.794 96.2843 69.7512 96.1781 69.6816 96.0928C69.6107 95.9961 69.4884 95.9117 69.3148 95.8396C69.1527 95.7661 68.9336 95.7057 68.6574 95.6583C68.3913 95.598 68.0442 95.5478 67.6162 95.5079C66.9496 95.4395 66.3277 95.3536 65.7507 95.2503C65.1722 95.1354 64.6573 94.9655 64.2058 94.7405C63.7645 94.5026 63.3961 94.1908 63.1007 93.8052C62.8153 93.4065 62.6331 92.8949 62.5542 92.2704L62.5498 92.2357C62.4782 91.6691 62.5165 91.1355 62.6647 90.635C62.8245 90.1331 63.0849 89.6831 63.4458 89.285C63.8183 88.8854 64.282 88.5566 64.8368 88.2985C65.3902 88.0288 66.0312 87.8479 66.7598 87.7558C67.8006 87.6243 68.7433 87.6461 69.5879 87.8213C70.2222 87.9417 70.8212 88.141 71.3849 88.4192C71.7163 88.5827 71.8241 88.9915 71.6501 89.3175L70.9071 90.7092C70.725 91.0503 70.3021 91.1752 69.9451 91.0266C69.5482 90.8613 69.1492 90.7389 68.7481 90.6592C68.1436 90.5241 67.5696 90.491 67.026 90.5597C66.6212 90.6108 66.3243 90.7247 66.1351 90.9014C65.9575 91.0766 65.8826 91.274 65.9104 91.4937L65.9148 91.5284C65.9323 91.6672 65.9766 91.785 66.0475 91.8818C66.1301 91.9771 66.2524 92.0615 66.4144 92.135C66.5865 92.1955 66.8115 92.2552 67.0891 92.3141C67.3769 92.36 67.7348 92.4029 68.1628 92.4427C68.8757 92.5054 69.5229 92.6057 70.1043 92.7437C70.6958 92.8687 71.2064 93.0509 71.6362 93.2903C72.0659 93.5297 72.4112 93.8444 72.672 94.2345C72.9313 94.6129 73.0968 95.0855 73.1684 95.6522L73.1728 95.6869C73.2517 96.3113 73.2004 96.8818 73.019 97.3982C72.8491 97.9132 72.5721 98.3711 72.1881 98.7722C71.8026 99.1616 71.3208 99.4869 70.7428 99.7479C70.1634 99.9974 69.5036 100.169 68.7635 100.262Z" fill="#171717"/>
<path d="M87.9999 100.637C87.9999 100.085 88.4476 99.6369 88.9999 99.6369H98.9999C99.5522 99.6369 99.9999 100.085 99.9999 100.637V116.637C99.9999 117.189 99.5522 117.637 98.9999 117.637H88.9999C88.4476 117.637 87.9999 117.189 87.9999 116.637V100.637Z" fill="#D9D9D9"/>
</svg>
