<svg width="24" height="24" viewBox="0 0 24 24" fill="none" xmlns="http://www.w3.org/2000/svg">
<g clip-path="url(#clip0_670_17824)">
<path d="M12 2C17.523 2 22 6.477 22 12C22 17.523 17.523 22 12 22C6.477 22 2 17.523 2 12C2 6.477 6.477 2 12 2ZM12 4C7.58172 4 4 7.58172 4 12C4 16.4183 7.58172 20 12 20C16.4183 20 20 16.4183 20 12C20 7.58172 16.4183 4 12 4ZM12.2 6.4C12.457 6.05722 12.9039 5.91627 13.3111 6.04951C13.7182 6.18275 13.9953 6.56059 14 6.989L13.994 7.111L13.64 10.296L15.336 10.014C15.7148 9.95132 16.096 10.111 16.317 10.4249C16.538 10.7388 16.5597 11.1516 16.373 11.487L16.3 11.6L11.8 17.6C11.543 17.9428 11.0961 18.0837 10.6889 17.9505C10.2818 17.8172 10.0047 17.4394 10 17.011L10.006 16.89L10.36 13.704L8.664 13.986C8.28524 14.0487 7.90404 13.889 7.68304 13.5751C7.46203 13.2612 7.44026 12.8484 7.627 12.513L7.7 12.4L12.2 6.4Z" fill="#CECECE"/>
</g>
<defs>
<clipPath id="clip0_670_17824">
<rect width="24" height="24" fill="white"/>
</clipPath>
</defs>
</svg>
