<svg width="90" height="90" viewBox="0 0 90 90" fill="none" xmlns="http://www.w3.org/2000/svg">
<g id="&#236;&#149;&#177; &#236;&#149;&#132;&#236;&#157;&#180;&#236;&#189;&#152;/white">
<g id="&#236;&#186;&#144;&#235;&#166;&#173;&#237;&#132;&#176;">
<path id="Vector 13 (Stroke)" d="M56.8393 13.043C64.9712 13.043 71.5634 19.6766 71.5634 27.8597C71.5634 32.6114 69.3401 36.84 65.8837 39.5514C68.7538 42.4146 71.5634 46.7746 71.5634 52.9677C71.5633 65.9096 60.6208 71.6092 55.5973 73.515C49.4062 75.8638 42.0971 76.7147 35.3501 76.7147C27.2182 76.7147 20.626 70.0811 20.626 61.898C20.626 57.2481 22.7552 53.0992 26.0853 50.3827C23.2985 47.361 20.7505 42.9976 20.6303 37.0814L20.626 36.6438L20.6291 36.2746C20.7664 28.5588 25.1909 23.3316 28.9324 20.4861C32.5219 17.7562 36.5808 16.2556 39.6494 15.3718C45.9284 13.5632 52.7486 13.043 56.8393 13.043Z" fill="white"/>
<path id="Ellipse 521" d="M42.8839 35.5647C43.0706 36.7743 42.9293 37.9913 42.4869 38.9835C42.0445 39.9758 41.3319 40.6739 40.485 40.9447C39.6381 41.2156 38.7162 41.0403 37.895 40.4522C37.0738 39.8641 36.4108 38.9043 36.0324 37.756C35.6541 36.6077 35.5868 35.351 35.8434 34.2257C36.1 33.1004 36.6626 32.1852 37.4239 31.6545C38.1851 31.1238 39.0918 31.0148 39.9711 31.3483C40.8503 31.6817 41.6406 32.4344 42.1912 33.4626L39.3272 36.1138L42.8839 35.5647Z" fill="#171717"/>
<path id="Ellipse 522" d="M53.7147 33.5374C53.9014 34.747 53.7601 35.9639 53.3177 36.9562C52.8753 37.9484 52.1627 38.6465 51.3158 38.9174C50.4689 39.1883 49.547 39.0129 48.7258 38.4248C47.9046 37.8367 47.2416 36.877 46.8632 35.7287C46.4849 34.5803 46.4176 33.3237 46.6742 32.1984C46.9308 31.0731 47.4934 30.1578 48.2547 29.6271C49.0159 29.0964 49.9226 28.9874 50.8019 29.3209C51.6811 29.6544 52.4714 30.407 53.022 31.4353L50.158 34.0865L53.7147 33.5374Z" fill="#171717"/>
</g>
<path id="Rectangle (Stroke)" d="M0 78.5941V70.8082C0 69.3994 1.14201 68.2574 2.55074 68.2574C3.95948 68.2574 5.10149 69.3994 5.10149 70.8082V78.5941C5.10149 81.7437 8.25628 84.8985 11.4059 84.8985V90C5.20502 90 0.159738 85.0517 0.00361978 78.8884L0 78.5941ZM19.1918 84.8985C20.6006 84.8985 21.7426 86.0405 21.7426 87.4493C21.7426 88.858 20.6006 90 19.1918 90H11.4059V84.8985H19.1918ZM78.5941 84.8985V90H70.8082C69.3994 90 68.2574 88.858 68.2574 87.4493C68.2574 86.0405 69.3994 84.8985 70.8082 84.8985H78.5941ZM89.9964 78.8884C89.8427 84.9539 84.9539 89.8427 78.8884 89.9964L78.5941 90V84.8985C81.7437 84.8985 84.8985 81.7437 84.8985 78.5941V70.8082C84.8985 69.3994 86.0405 68.2574 87.4493 68.2574C88.858 68.2574 90 69.3994 90 70.8082V78.5941L89.9964 78.8884ZM0 11.4059C9.18669e-08 5.10661 5.10661 9.1855e-08 11.4059 0H19.1918C20.6006 0 21.7426 1.14201 21.7426 2.55074C21.7426 3.95948 20.6006 5.10149 19.1918 5.10149H11.4059C8.25628 5.10149 5.10149 8.25628 5.10149 11.4059V19.1918C5.10149 20.6006 3.95948 21.7426 2.55074 21.7426C1.14201 21.7426 0 20.6006 0 19.1918V11.4059ZM90 19.1918C90 20.6006 88.858 21.7426 87.4493 21.7426C86.0405 21.7426 84.8985 20.6006 84.8985 19.1918V11.4059C84.8985 8.25628 81.7437 5.10149 78.5941 5.10149H70.8082C69.3994 5.10149 68.2574 3.95948 68.2574 2.55074C68.2574 1.14201 69.3994 0 70.8082 0H78.5941L78.8884 0.00361978C85.0517 0.159738 90 5.20502 90 11.4059V19.1918Z" fill="white"/>
</g>
</svg>
