<svg width="90" height="90" viewBox="0 0 90 90" fill="none" xmlns="http://www.w3.org/2000/svg">
<path d="M58.6426 13C65.826 13 71.6835 18.865 71.6836 26.1416C71.6836 30.3617 69.713 34.1112 66.6445 36.5186L63.8604 38.7021L66.3652 41.2002C69.1062 43.9346 71.6834 47.97 71.6836 53.7188C71.6835 65.7931 61.5112 71.3322 56.168 73.3594C49.8497 75.7564 42.2356 76.6699 35.04 76.6699C27.8568 76.6697 22.0002 70.8048 22 63.5283C22 59.3982 23.887 55.7196 26.8438 53.3076L29.4229 51.2031L27.166 48.7568C24.4897 45.8548 22.121 41.7676 22.0039 36.2227L22 35.8164L22.0029 35.4395C22.1311 28.2459 26.2418 23.3079 29.8877 20.5352C33.3897 17.872 37.429 16.3575 40.6299 15.4355C47.1617 13.5542 54.3422 13 58.6426 13Z" fill="white"/>
<path d="M43.3152 34.6076C43.5203 35.9362 43.3651 37.2729 42.8791 38.3627C42.3932 39.4526 41.6105 40.2194 40.6803 40.5169C39.7501 40.8144 38.7375 40.6218 37.8356 39.9758C36.9336 39.3299 36.2054 38.2758 35.7898 37.0145C35.3742 35.7532 35.3003 34.373 35.5822 33.137C35.8641 31.901 36.482 30.8957 37.3181 30.3128C38.1543 29.7299 39.1502 29.6102 40.1159 29.9765C41.0816 30.3428 41.9496 31.1694 42.5544 32.2988L39.4086 35.2108L43.3152 34.6076Z" fill="black"/>
<path d="M55.2112 32.3778C55.4163 33.7064 55.2611 35.0431 54.7751 36.1329C54.2892 37.2227 53.5065 37.9895 52.5763 38.287C51.6461 38.5845 50.6335 38.3919 49.7316 37.746C48.8296 37.1 48.1014 36.0459 47.6858 34.7846C47.2702 33.5233 47.1963 32.1431 47.4782 30.9071C47.7601 29.6711 48.378 28.6658 49.2141 28.0829C50.0503 27.5001 51.0462 27.3803 52.0119 27.7466C52.9776 28.1129 53.8456 28.9396 54.4504 30.069L51.3046 32.9809L55.2112 32.3778Z" fill="black"/>
<path d="M0 78.5941V70.8082C0 69.3994 1.14201 68.2574 2.55074 68.2574C3.95948 68.2574 5.10149 69.3994 5.10149 70.8082V78.5941C5.10149 81.7437 8.25628 84.8985 11.4059 84.8985V90C5.20502 90 0.159738 85.0517 0.00361978 78.8884L0 78.5941ZM19.1918 84.8985C20.6006 84.8985 21.7426 86.0405 21.7426 87.4493C21.7426 88.858 20.6006 90 19.1918 90H11.4059V84.8985H19.1918ZM78.5941 84.8985V90H70.8082C69.3994 90 68.2574 88.858 68.2574 87.4493C68.2574 86.0405 69.3994 84.8985 70.8082 84.8985H78.5941ZM89.9964 78.8884C89.8427 84.9539 84.9539 89.8427 78.8884 89.9964L78.5941 90V84.8985C81.7437 84.8985 84.8985 81.7437 84.8985 78.5941V70.8082C84.8985 69.3994 86.0405 68.2574 87.4493 68.2574C88.858 68.2574 90 69.3994 90 70.8082V78.5941L89.9964 78.8884ZM0 11.4059C9.18669e-08 5.10661 5.10661 9.1855e-08 11.4059 0H19.1918C20.6006 0 21.7426 1.14201 21.7426 2.55074C21.7426 3.95948 20.6006 5.10149 19.1918 5.10149H11.4059C8.25628 5.10149 5.10149 8.25628 5.10149 11.4059V19.1918C5.10149 20.6006 3.95948 21.7426 2.55074 21.7426C1.14201 21.7426 0 20.6006 0 19.1918V11.4059ZM90 19.1918C90 20.6006 88.858 21.7426 87.4493 21.7426C86.0405 21.7426 84.8985 20.6006 84.8985 19.1918V11.4059C84.8985 8.25628 81.7437 5.10149 78.5941 5.10149H70.8082C69.3994 5.10149 68.2574 3.95948 68.2574 2.55074C68.2574 1.14201 69.3994 0 70.8082 0H78.5941L78.8884 0.00361978C85.0517 0.159738 90 5.20502 90 11.4059V19.1918Z" fill="white"/>
</svg>
