<svg width="140" height="140" viewBox="0 0 140 140" fill="none" xmlns="http://www.w3.org/2000/svg">
<path d="M101.646 19.5068C113.152 19.8002 122.433 29.2897 122.433 40.9961L122.426 41.5449C122.285 47.2027 119.977 52.3066 116.301 56.0693L111.89 60.584L115.926 65.4365C119.446 69.6697 122.411 75.4713 122.432 83.2725V83.3535C122.432 102.784 106.053 111.597 97.7549 114.745C87.8489 118.503 75.9817 119.915 64.8398 119.915C53.4413 119.915 44.0958 110.899 43.5273 99.5205L43.5068 98.9775L43.5 98.4189C43.5001 92.6363 45.7626 87.4 49.4482 83.5342L53.6113 79.168L49.9072 74.4062C46.4644 69.9803 43.6696 64.1141 43.5078 56.5127L43.5 55.7852L43.5029 55.3936L43.5059 55.3525V55.2178C43.7252 43.6563 50.3397 35.7469 56.1318 31.3418C61.6952 27.1109 68.0736 24.7275 73.0605 23.291L74.0068 23.0254L74.0078 23.0264C83.9355 20.3056 94.6107 19.5011 101.079 19.5L101.646 19.5068Z" fill="#969696"/>
<path d="M97.1211 64.3535C97.4564 63.7501 98.2179 63.5329 98.8213 63.8682C99.4247 64.2034 99.6419 64.9649 99.3066 65.5684C95.439 72.5298 88.0705 74.2471 84.8213 74.2471C84.1311 74.2471 83.5715 73.6872 83.5713 72.9971C83.5713 72.3067 84.1309 71.7471 84.8213 71.7471C87.5244 71.7471 93.8459 70.249 97.1211 64.3535Z" fill="#171717"/>
<path d="M99.8631 45.1725C100.237 45.0891 100.629 45.1816 100.926 45.4239C101.222 45.6663 101.392 46.0321 101.385 46.4152C101.378 46.7777 101.355 47.1725 101.316 47.5931L116.254 44.2645L116.433 44.2376C116.853 44.2064 117.266 44.3896 117.524 44.7319L120.771 49.04C121.186 49.5912 121.076 50.3752 120.525 50.7907C119.974 51.2061 119.19 51.0957 118.774 50.5445L116.012 46.8799L100.879 50.2518C100.53 51.7409 99.9798 53.3448 99.162 54.8766C97.5376 57.9189 94.8112 60.7515 90.4818 61.7163C86.1456 62.6824 82.5485 61.2513 79.8802 59.1471C78.5097 58.0663 77.3687 56.7969 76.467 55.5534C76.0967 57.0942 75.5063 58.7666 74.6182 60.3626C72.9155 63.4225 70.0868 66.2617 65.6353 67.2537C61.1776 68.247 57.4864 66.8544 54.7428 64.7664C52.0301 62.7019 50.1964 59.9311 49.3192 57.9738C49.1657 57.6312 49.1742 57.2376 49.3425 56.902C49.5109 56.5664 49.8216 56.3241 50.188 56.2424L75.4446 50.6146C75.4503 50.6132 75.4558 50.6111 75.4615 50.6098L99.8631 45.1725Z" fill="#171717"/>
<path d="M19.7857 65.6791C19.7857 64.1998 20.985 63.0006 22.4643 63.0006H44.7857C46.265 63.0006 47.4643 64.1998 47.4643 65.6791V110.322C47.4643 111.801 46.265 113.001 44.7857 113.001H22.4643C20.985 113.001 19.7857 111.801 19.7857 110.322V65.6791Z" fill="#484848"/>
<path d="M28.7143 69.697C28.7143 71.4229 27.3152 72.822 25.5893 72.822C23.8634 72.822 22.4643 71.4229 22.4643 69.697C22.4643 67.9711 23.8634 66.572 25.5893 66.572C27.3152 66.572 28.7143 67.9711 28.7143 69.697Z" fill="#171717"/>
<path d="M28 87C28 90.866 24.866 94 21 94C17.134 94 14 90.866 14 87C14 83.134 17.134 80 21 80C24.866 80 28 83.134 28 87Z" fill="#969696"/>
</svg>
