<svg width="24" height="24" viewBox="0 0 24 24" fill="none" xmlns="http://www.w3.org/2000/svg">
<path d="M13.2989 3.14844L21.9329 18.1024C22.0646 18.3305 22.1339 18.5891 22.1339 18.8524C22.1339 19.1157 22.0646 19.3744 21.9329 19.6024C21.8013 19.8304 21.6119 20.0198 21.3839 20.1515C21.1559 20.2831 20.8972 20.3524 20.6339 20.3524H3.36593C3.10263 20.3524 2.84397 20.2831 2.61594 20.1515C2.38792 20.0198 2.19857 19.8304 2.06692 19.6024C1.93527 19.3744 1.86597 19.1157 1.86597 18.8524C1.86597 18.5891 1.93528 18.3305 2.06693 18.1024L10.7009 3.14844C11.2779 2.14844 12.7209 2.14844 13.2989 3.14844ZM11.9999 4.89844L4.23193 18.3524H19.7679L11.9999 4.89844ZM11.9999 15.0004C12.2651 15.0004 12.5195 15.1058 12.707 15.2933C12.8946 15.4809 12.9999 15.7352 12.9999 16.0004C12.9999 16.2657 12.8946 16.52 12.707 16.7075C12.5195 16.8951 12.2651 17.0004 11.9999 17.0004C11.7347 17.0004 11.4804 16.8951 11.2928 16.7075C11.1053 16.52 10.9999 16.2657 10.9999 16.0004C10.9999 15.7352 11.1053 15.4809 11.2928 15.2933C11.4804 15.1058 11.7347 15.0004 11.9999 15.0004ZM11.9999 8.00044C12.2651 8.00044 12.5195 8.10579 12.707 8.29333C12.8946 8.48087 12.9999 8.73522 12.9999 9.00044V13.0004C12.9999 13.2657 12.8946 13.52 12.707 13.7075C12.5195 13.8951 12.2651 14.0004 11.9999 14.0004C11.7347 14.0004 11.4804 13.8951 11.2928 13.7075C11.1053 13.52 10.9999 13.2657 10.9999 13.0004V9.00044C10.9999 8.73522 11.1053 8.48087 11.2928 8.29333C11.4804 8.10579 11.7347 8.00044 11.9999 8.00044Z" fill="#171717"/>
</svg>
