<svg width="49" height="51" viewBox="0 0 49 51" fill="none" xmlns="http://www.w3.org/2000/svg">
<g opacity="0.8">
<circle cx="24.8967" cy="24" r="23.5" fill="#171717" stroke="#383838"/>
<path d="M15.4212 40.1248C12.3784 40.1248 10.74 38.4864 10.74 35.4436V30.1071C10.74 26.8303 11.7698 25.5664 14.7658 25.5664H16.5914C17.7617 25.5664 17.6213 24.8174 16.7787 23.8811L15.5148 22.43C13.4551 20.0426 12.4252 17.6552 12.472 15.5487C12.472 10.7271 15.8425 7.40344 22.5833 7.40344H34.4267C37.4694 7.40344 39.1078 9.04185 39.1078 12.0846V17.2807C39.1078 20.5107 37.9375 21.9619 35.2693 21.9619H33.4436C32.367 21.9619 32.601 22.664 33.3032 23.5066L34.6607 25.0982C36.7204 27.5324 37.7503 29.873 37.7503 32.0264C37.7035 36.8011 34.2862 40.1248 27.4985 40.1248H15.4212Z" fill="#4E5DF2"/>
<circle cx="22.6525" cy="17.533" r="1.70207" fill="#171717"/>
<circle cx="28.3278" cy="17.533" r="1.70207" fill="#171717"/>
<g filter="url(#filter0_d_805_1639)">
<path d="M8.61108 22.3347C8.61108 22.3347 17.1123 21.6799 20.4208 25.1856V41.4768C20.4208 41.4768 17.4684 37.2 8.61108 38.6258V22.3347Z" fill="white" fill-opacity="0.6" style="mix-blend-mode:screen"/>
<path d="M9.99194 22.4376C10.8366 22.431 11.9973 22.4584 13.2595 22.5948C14.5221 22.7314 15.8834 22.9767 17.1316 23.4034C18.3602 23.8236 19.4698 24.417 20.2712 25.2472V41.0675C20.1795 40.9686 20.0649 40.8497 19.9226 40.7198C19.4978 40.3324 18.8397 39.8343 17.9031 39.382C16.052 38.4882 13.1213 37.7811 8.76147 38.4523V22.4747C8.82027 22.4713 8.89714 22.4673 8.98999 22.463C9.22715 22.452 9.57003 22.4409 9.99194 22.4376Z" stroke="white" stroke-opacity="0.5" stroke-width="0.3"/>
<path d="M20.4202 25.1427C26.325 22.0804 35.1823 23.9178 35.1823 23.9178V40.2501C35.1823 40.2501 28.0473 38.6173 20.4202 41.475V25.1427Z" fill="white" fill-opacity="0.6" style="mix-blend-mode:screen"/>
<path d="M30.012 23.5322C31.4813 23.5703 32.7673 23.7033 33.6858 23.8271C34.145 23.8891 34.5129 23.9482 34.7649 23.9922C34.878 24.0119 34.9679 24.0287 35.0325 24.041V40.0664C34.9911 40.0582 34.9427 40.0483 34.8879 40.0381C34.6758 39.9986 34.3652 39.9451 33.969 39.8906C33.176 39.7815 32.0396 39.6662 30.6643 39.6406C27.9627 39.5903 24.3347 39.8884 20.5706 41.2617V25.2344C23.4756 23.7568 27.0952 23.4566 30.012 23.5322Z" stroke="white" stroke-opacity="0.5" stroke-width="0.3"/>
</g>
</g>
<defs>
<filter id="filter0_d_805_1639" x="-4.29153e-05" y="13.6751" width="43.7935" height="36.4128" filterUnits="userSpaceOnUse" color-interpolation-filters="sRGB">
<feFlood flood-opacity="0" result="BackgroundImageFix"/>
<feColorMatrix in="SourceAlpha" type="matrix" values="0 0 0 0 0 0 0 0 0 0 0 0 0 0 0 0 0 0 127 0" result="hardAlpha"/>
<feOffset/>
<feGaussianBlur stdDeviation="4.30556"/>
<feComposite in2="hardAlpha" operator="out"/>
<feColorMatrix type="matrix" values="0 0 0 0 0 0 0 0 0 0 0 0 0 0 0 0 0 0 0.5 0"/>
<feBlend mode="multiply" in2="BackgroundImageFix" result="effect1_dropShadow_805_1639"/>
<feBlend mode="normal" in="SourceGraphic" in2="effect1_dropShadow_805_1639" result="shape"/>
</filter>
</defs>
</svg>
