<svg width="20" height="20" viewBox="0 0 20 20" fill="none" xmlns="http://www.w3.org/2000/svg">
<g clip-path="url(#clip0_1440_2513)">
<path fill-rule="evenodd" clip-rule="evenodd" d="M9.99993 11.1785L14.7141 15.8926C14.8713 16.0444 15.0818 16.1284 15.3003 16.1265C15.5188 16.1246 15.7278 16.037 15.8823 15.8825C16.0368 15.728 16.1244 15.519 16.1263 15.3005C16.1282 15.082 16.0442 14.8715 15.8924 14.7143L11.1783 10.0001L15.8924 5.28596C16.0442 5.12879 16.1282 4.91829 16.1263 4.6998C16.1244 4.4813 16.0368 4.27229 15.8823 4.11778C15.7278 3.96327 15.5188 3.87563 15.3003 3.87373C15.0818 3.87184 14.8713 3.95583 14.7141 4.10763L9.99993 8.8218L5.28577 4.10763C5.12789 3.95958 4.91861 3.87877 4.70221 3.88228C4.48581 3.8858 4.27926 3.97336 4.12628 4.12646C3.97329 4.27955 3.88587 4.48616 3.88251 4.70256C3.87915 4.91897 3.96011 5.12819 4.10827 5.28596L8.8216 10.0001L4.10743 14.7143C4.02784 14.7912 3.96436 14.8831 3.92068 14.9848C3.87701 15.0865 3.85402 15.1958 3.85306 15.3065C3.8521 15.4171 3.87318 15.5268 3.91508 15.6293C3.95698 15.7317 4.01886 15.8247 4.0971 15.903C4.17535 15.9812 4.26839 16.0431 4.37081 16.085C4.47322 16.1269 4.58295 16.148 4.6936 16.147C4.80425 16.146 4.9136 16.1231 5.01527 16.0794C5.11694 16.0357 5.2089 15.9722 5.28577 15.8926L9.99993 11.1785Z" fill="white"/>
</g>
<defs>
<clipPath id="clip0_1440_2513">
<rect width="20" height="20" fill="white"/>
</clipPath>
</defs>
</svg>
