<svg width="40" height="40" viewBox="0 0 40 40" fill="none" xmlns="http://www.w3.org/2000/svg">
<path d="M0 14C0 6.26801 6.26801 0 14 0H26C33.732 0 40 6.26801 40 14V26C40 33.732 33.732 40 26 40H14C6.26801 40 0 33.732 0 26V14Z" fill="#484848"/>
<path d="M24.5703 6.46191C28.1845 6.64594 31.0487 9.65165 31.0488 13.3193C31.0488 15.1173 30.3597 16.7546 29.2344 17.9785C30.2189 19.219 31.0488 20.9312 31.0488 23.1777C31.0488 28.9757 26.1346 31.456 24.1035 32.2266C21.5114 33.21 18.5024 33.5508 15.7812 33.5508C12.0031 33.5508 8.95129 30.4704 8.95117 26.6846C8.95117 24.9138 9.61962 23.2987 10.7148 22.0811C9.76823 20.8106 8.99698 19.1169 8.95312 16.9619V16.9502L8.95117 16.7783V16.7598L8.95215 16.6152L8.95312 16.6045C9.01483 13.1463 11.0028 10.825 12.627 9.58984C14.1837 8.40597 15.9172 7.77157 17.1787 7.4082C19.7661 6.66295 22.548 6.45313 24.2188 6.45312L24.5703 6.46191Z" fill="#E1E1E1"/>
<path d="M28.9492 23.1777C28.9492 21.4904 28.3372 20.2258 27.5898 19.2842L26.4736 17.8779L27.6885 16.5576C28.4712 15.7063 28.9492 14.5708 28.9492 13.3193C28.9491 10.7676 26.9608 8.69247 24.4756 8.55957L24.1855 8.55273C22.6403 8.55556 20.0859 8.75576 17.7598 9.42578C16.6128 9.75617 15.1604 10.3021 13.8984 11.2617C12.5834 12.2618 11.0992 14.0439 11.0527 16.6416L11.0518 16.7188L11.0508 16.7256V16.7744L11.0527 16.9189L11.0654 17.2236C11.1595 18.7233 11.7123 19.9053 12.3984 20.8262L13.4268 22.2061L12.2764 23.4854C11.5622 24.2793 11.1103 25.3131 11.0566 26.4551L11.0508 26.6846C11.0509 29.3236 13.1758 31.4512 15.7812 31.4512V33.5508C12.0031 33.5508 8.95129 30.4704 8.95117 26.6846C8.95117 24.9138 9.61962 23.2987 10.7148 22.0811C9.76823 20.8106 8.99698 19.1169 8.95312 16.9619V16.9502L8.95117 16.7783V16.7598L8.95215 16.6152L8.95312 16.6045C9.01483 13.1463 11.0028 10.825 12.627 9.58984C14.1837 8.40597 15.9172 7.77157 17.1787 7.4082C19.7661 6.66295 22.548 6.45313 24.2188 6.45312L24.5703 6.46191C28.1845 6.64594 31.0487 9.65165 31.0488 13.3193C31.0488 15.1173 30.3597 16.7546 29.2344 17.9785C30.2189 19.219 31.0488 20.9312 31.0488 23.1777C31.0488 28.9757 26.1346 31.456 24.1035 32.2266C21.5114 33.21 18.5024 33.5508 15.7812 33.5508V31.4512C18.3584 31.4512 21.0893 31.1235 23.3584 30.2627C25.2193 29.5567 28.7216 27.66 28.9385 23.5791L28.9492 23.1777Z" fill="#171717"/>
<path d="M18.7393 16.3429C18.8126 16.8178 18.7572 17.2957 18.5834 17.6853C18.4097 18.0748 18.1299 18.3489 17.7974 18.4553C17.4649 18.5616 17.1029 18.4928 16.7805 18.2619C16.4581 18.031 16.1977 17.6542 16.0492 17.2033C15.9006 16.7524 15.8742 16.259 15.975 15.8172C16.0757 15.3753 16.2966 15.016 16.5955 14.8076C16.8944 14.5992 17.2504 14.5564 17.5956 14.6874C17.9409 14.8183 18.2512 15.1138 18.4674 15.5175L17.3428 16.5585L18.7393 16.3429Z" fill="black"/>
<path d="M22.9917 15.5421C23.065 16.0171 23.0095 16.4949 22.8358 16.8845C22.6621 17.2741 22.3823 17.5482 22.0498 17.6545C21.7173 17.7609 21.3553 17.692 21.0329 17.4611C20.7104 17.2302 20.4501 16.8534 20.3016 16.4025C20.153 15.9516 20.1266 15.4582 20.2273 15.0164C20.3281 14.5745 20.549 14.2152 20.8479 14.0068C21.1468 13.7984 21.5028 13.7556 21.848 13.8866C22.1933 14.0175 22.5036 14.313 22.7198 14.7168L21.5952 15.7577L22.9917 15.5421Z" fill="black"/>
</svg>
