<svg width="24" height="24" viewBox="0 0 24 24" fill="none" xmlns="http://www.w3.org/2000/svg">
<g clip-path="url(#clip0_640_8573)">
<path fill-rule="evenodd" clip-rule="evenodd" d="M13.232 1.36C13.864 0.601999 15.095 1.12 14.995 2.102L14.289 9H20C20.19 9.00007 20.3761 9.05428 20.5364 9.15627C20.6967 9.25826 20.8247 9.40382 20.9052 9.5759C20.9858 9.74798 21.0157 9.93946 20.9914 10.1279C20.9671 10.3164 20.8896 10.494 20.768 10.64L10.768 22.64C10.136 23.398 8.90499 22.88 9.00499 21.898L9.71099 15H3.99999C3.80998 14.9999 3.62392 14.9457 3.4636 14.8437C3.30328 14.7417 3.17533 14.5962 3.09475 14.4241C3.01416 14.252 2.98428 14.0605 3.00858 13.8721C3.03289 13.6836 3.11038 13.506 3.23199 13.36L13.232 1.36ZM6.13499 13H11.483C11.5389 13 11.5942 13.0117 11.6453 13.0344C11.6964 13.0571 11.7421 13.0902 11.7796 13.1317C11.8171 13.1731 11.8455 13.222 11.863 13.2751C11.8805 13.3282 11.8866 13.3844 11.881 13.44L11.328 18.845L17.865 11H12.517C12.4611 11 12.4058 10.9883 12.3547 10.9656C12.3036 10.9429 12.2578 10.9098 12.2203 10.8683C12.1828 10.8269 12.1544 10.778 12.137 10.7249C12.1195 10.6718 12.1134 10.6156 12.119 10.56L12.672 5.156L6.13499 13Z" fill="#CECECE"/>
</g>
<defs>
<clipPath id="clip0_640_8573">
<rect width="24" height="24" fill="white"/>
</clipPath>
</defs>
</svg>
