<svg width="109" height="30" viewBox="0 0 109 30" fill="none" xmlns="http://www.w3.org/2000/svg">
<path d="M3.69008 15.87C4.95008 18.21 6.44008 19.38 8.16008 19.38C9.46008 19.38 10.4101 19.13 11.0101 18.63C11.6301 18.11 11.9401 17.41 11.9401 16.53C11.9401 16.01 11.7601 15.57 11.4001 15.21C11.0601 14.85 10.6201 14.55 10.0801 14.31C9.56008 14.07 8.83008 13.79 7.89008 13.47C6.45008 12.95 5.27008 12.46 4.35008 12C3.45008 11.52 2.67008 10.83 2.01008 9.93C1.35008 9.01 1.02008 7.83 1.02008 6.39C1.02008 5.09 1.34008 3.96 1.98008 3C2.62008 2.04 3.51008 1.3 4.65008 0.780001C5.81008 0.260001 7.14008 1.66893e-06 8.64008 1.66893e-06C9.54008 1.66893e-06 10.4701 0.200001 11.4301 0.600001C12.4101 0.980001 13.3101 1.59 14.1301 2.43C14.9701 3.25 15.6301 4.29 16.1101 5.55L12.1201 7.02C11.6401 5.84 11.0901 5.02 10.4701 4.56C9.87008 4.1 9.26008 3.87 8.64008 3.87C7.64008 3.87 6.87008 4.11 6.33008 4.59C5.81008 5.07 5.55008 5.67 5.55008 6.39C5.55008 6.91 5.73008 7.36 6.09008 7.74C6.45008 8.12 6.90008 8.44 7.44008 8.7C8.00008 8.96 8.77008 9.28 9.75008 9.66C11.1701 10.22 12.3201 10.74 13.2001 11.22C14.1001 11.7 14.8701 12.38 15.5101 13.26C16.1501 14.12 16.4701 15.21 16.4701 16.53C16.4701 17.85 16.1301 19.02 15.4501 20.04C14.7901 21.04 13.8301 21.83 12.5701 22.41C11.3301 22.97 9.86008 23.25 8.16008 23.25C6.50008 23.25 4.97008 22.79 3.57008 21.87C2.19008 20.93 1.00008 19.63 7.82162e-05 17.97L3.69008 15.87ZM21.2169 11.94H18.2469V8.04H21.2169V2.73H25.7769V8.04H29.2869V11.94H25.7769V23.04H21.2169V11.94ZM37.4152 23.07C36.0552 23.07 34.8652 22.76 33.8452 22.14C32.8252 21.5 32.0352 20.62 31.4752 19.5C30.9152 18.36 30.6352 17.06 30.6352 15.6C30.6352 14.14 30.9152 12.85 31.4752 11.73C32.0352 10.59 32.8252 9.71 33.8452 9.09C34.8652 8.45 36.0552 8.13 37.4152 8.13C38.1152 8.13 38.8252 8.28 39.5452 8.58C40.2652 8.86 40.8552 9.32 41.3152 9.96V8.1H45.8752V23.04H41.3152V21.27C40.8352 21.89 40.2352 22.34 39.5152 22.62C38.8152 22.92 38.1152 23.07 37.4152 23.07ZM35.1952 15.6C35.1952 16.8 35.4452 17.73 35.9452 18.39C36.4652 19.05 37.1952 19.38 38.1352 19.38C39.0152 19.38 39.7552 19.02 40.3552 18.3C40.9752 17.58 41.2952 16.68 41.3152 15.6C41.2952 14.52 40.9752 13.62 40.3552 12.9C39.7552 12.18 39.0152 11.82 38.1352 11.82C37.1952 11.82 36.4652 12.15 35.9452 12.81C35.4452 13.47 35.1952 14.4 35.1952 15.6ZM68.1345 15.39C68.1345 14.37 67.9145 13.55 67.4745 12.93C67.0545 12.31 66.4945 12 65.7945 12C65.1145 12 64.5445 12.34 64.0845 13.02C63.6445 13.68 63.4245 14.47 63.4245 15.39V23.04H58.8645V15.39C58.8645 14.37 58.6545 13.55 58.2345 12.93C57.8145 12.31 57.2645 12 56.5845 12C55.8645 12 55.2745 12.31 54.8145 12.93C54.3745 13.55 54.1545 14.37 54.1545 15.39V23.04H49.5945V8.13H54.1545V10.29C54.5745 9.61 55.0845 9.1 55.6845 8.76C56.3045 8.4 56.9545 8.22 57.6345 8.22C58.4145 8.22 59.1845 8.5 59.9445 9.06C60.7045 9.62 61.3245 10.3 61.8045 11.1C62.3845 10.32 63.1245 9.65 64.0245 9.09C64.9445 8.51 65.8045 8.22 66.6045 8.22C68.5045 8.22 69.9945 8.88 71.0745 10.2C72.1545 11.52 72.6945 13.25 72.6945 15.39V23.04H68.1345V15.39ZM84.1871 19.29C85.1071 19.29 85.8171 18.96 86.3171 18.3C86.8371 17.64 87.0971 16.71 87.0971 15.51C87.0971 14.31 86.8371 13.38 86.3171 12.72C85.8171 12.06 85.1071 11.73 84.1871 11.73C83.2471 11.73 82.4671 12.09 81.8471 12.81C81.2271 13.51 80.9171 14.41 80.9171 15.51C80.9171 16.61 81.2271 17.52 81.8471 18.24C82.4671 18.94 83.2471 19.29 84.1871 19.29ZM76.3571 8.07H80.9171V10.02C81.4971 9.26 82.1771 8.74 82.9571 8.46C83.7571 8.18 84.3871 8.04 84.8471 8.04C86.2071 8.04 87.3971 8.36 88.4171 9C89.4571 9.62 90.2571 10.5 90.8171 11.64C91.3771 12.76 91.6571 14.05 91.6571 15.51C91.6571 16.97 91.3771 18.27 90.8171 19.41C90.2571 20.55 89.4571 21.44 88.4171 22.08C87.3971 22.7 86.2071 23.01 84.8471 23.01C84.3271 23.01 83.6871 22.88 82.9271 22.62C82.1671 22.38 81.4971 21.85 80.9171 21.03V29.25H76.3571V8.07ZM94.4244 28.98L97.8744 21.09L91.9044 8.13H96.9444L100.244 16.14L103.484 8.13H108.464L102.914 20.94L99.4044 28.98H94.4244Z" fill="white"/>
</svg>
