<svg width="62" height="15" viewBox="0 0 62 15" fill="none" xmlns="http://www.w3.org/2000/svg">
<path d="M45.2246 2.87036C45.7615 2.8704 46.2735 2.98557 46.7568 3.21216L46.7578 3.21118C47.2538 3.42925 47.6875 3.74465 48.0557 4.15356C48.4251 4.56393 48.709 5.05735 48.9131 5.62329C49.1329 6.20527 49.2383 6.84881 49.2383 7.54517V7.57446C49.2383 8.27795 49.1327 8.92735 48.915 9.51685L48.916 9.51782C48.712 10.0863 48.4287 10.5849 48.0605 11.0051L48.0596 11.0042C47.7013 11.4144 47.2745 11.7358 46.7812 11.9641L46.7764 11.9661C46.291 12.1844 45.7771 12.2932 45.2393 12.2932C44.9042 12.2932 44.5883 12.2549 44.2959 12.1731V12.1741C44.0295 12.1063 43.7792 12.0145 43.5479 11.8967L43.5303 11.887C43.4592 11.8471 43.3905 11.8047 43.3232 11.761V13.5803C43.3232 14.0795 42.9232 14.5002 42.4111 14.5002H40.4531C39.9411 14.5002 39.541 14.0795 39.541 13.5803V3.96899C39.541 3.46978 39.9411 3.04907 40.4531 3.04907H42.4111C42.7623 3.04907 43.0601 3.24725 43.2129 3.53247C43.3091 3.46015 43.4097 3.39394 43.5137 3.33228C43.7482 3.18897 44.0035 3.07643 44.2764 2.99536L44.2822 2.99341C44.577 2.90943 44.8925 2.87036 45.2246 2.87036ZM44.375 6.24048C44.2192 6.24049 44.0809 6.27132 43.9541 6.32935C43.8266 6.38777 43.7129 6.47296 43.6113 6.59009L43.6006 6.60083C43.5004 6.70964 43.4155 6.84333 43.3486 7.00708C43.2947 7.16196 43.2646 7.3446 43.2646 7.55981V7.58911C43.2646 7.8027 43.2951 7.9917 43.3506 8.15942C43.4173 8.32221 43.5027 8.46238 43.6064 8.58325C43.7069 8.69093 43.822 8.7737 43.9541 8.83423C44.0809 8.8923 44.2191 8.92309 44.375 8.9231C44.6939 8.9231 44.947 8.81325 45.165 8.57739C45.3764 8.34876 45.5 8.03502 45.5 7.58911V7.55981C45.5 7.12674 45.3778 6.81749 45.165 6.58716C44.947 6.35126 44.6939 6.24048 44.375 6.24048Z" fill="white" stroke="black"/>
<path d="M35.9648 2.87036C36.92 2.87045 37.7267 3.16524 38.3184 3.802H38.3193C38.9124 4.43052 39.1729 5.29681 39.1729 6.32251V11.1956C39.1728 11.6946 38.7735 12.1143 38.2617 12.1145H36.3027C35.7909 12.1143 35.3917 11.6946 35.3916 11.1956V7.23169C35.3916 6.84497 35.3053 6.65496 35.2256 6.56567L35.2178 6.55786C35.1281 6.4529 35.0104 6.38989 34.8076 6.38989C34.6048 6.3899 34.4668 6.45386 34.3525 6.57544L34.3447 6.58325C34.2567 6.67293 34.166 6.85552 34.166 7.23169V11.1956C34.1659 11.6946 33.7658 12.1144 33.2539 12.1145H31.2959C30.7839 12.1145 30.3839 11.6947 30.3838 11.1956V7.23169C30.3838 6.84492 30.2975 6.65495 30.2178 6.56567L30.21 6.55786V6.55688C30.1204 6.45231 30.0021 6.38989 29.7998 6.38989C29.5971 6.38995 29.4589 6.45387 29.3447 6.57544L29.3438 6.57446C29.2602 6.66389 29.1729 6.85071 29.1729 7.23169V11.1956C29.1728 11.6947 28.7728 12.1145 28.2607 12.1145H26.3027C25.7907 12.1145 25.3907 11.6947 25.3906 11.1956V3.96899C25.3906 3.46978 25.7907 3.04907 26.3027 3.04907H28.2607C28.6172 3.04907 28.9187 3.25309 29.0693 3.54517C29.1576 3.47591 29.249 3.40832 29.3438 3.34399C29.8232 3.01861 30.3951 2.87036 31.0303 2.87036C31.6313 2.8704 32.1803 3.00114 32.6592 3.28149C32.9373 3.4443 33.1772 3.64809 33.3809 3.88794C33.6369 3.6536 33.9136 3.45597 34.209 3.29419C34.7185 3.00461 35.3109 2.87036 35.9648 2.87036Z" fill="white" stroke="black"/>
<path d="M20.6729 2.92944C21.4203 2.92944 22.0789 3.01776 22.6348 3.20972C23.1905 3.39835 23.6648 3.67738 24.04 4.05737L24.1729 4.19604C24.4661 4.52479 24.6773 4.91074 24.8086 5.34644L24.8643 5.52905C24.9834 5.96332 25.039 6.44816 25.0391 6.97729V11.1951C25.0389 11.6941 24.6389 12.1139 24.127 12.114H22.1982C21.8868 12.114 21.6168 11.9585 21.4531 11.7244C21.3177 11.8148 21.1764 11.8985 21.0273 11.9724L21.0225 11.9753C20.5676 12.1947 20.0399 12.2927 19.458 12.2927C19.0292 12.2927 18.6228 12.2311 18.2432 12.1023C17.8645 11.9738 17.5247 11.7844 17.2295 11.532L17.2217 11.5251C16.9305 11.2657 16.7043 10.9479 16.541 10.5798C16.3708 10.196 16.293 9.76647 16.293 9.30347V9.27319L16.2969 9.09644C16.3154 8.68794 16.3996 8.30714 16.5586 7.96167L16.5635 7.94995L16.6367 7.80933C16.8155 7.48867 17.0477 7.21322 17.332 6.98804L17.3389 6.98315C17.6686 6.73137 18.0538 6.54655 18.4854 6.42261C18.9182 6.29831 19.3905 6.23901 19.8975 6.23901C20.2995 6.23904 20.6853 6.27702 21.0537 6.35425H21.0527C21.0747 6.35812 21.0965 6.36199 21.1182 6.36597C21.105 6.35229 21.0913 6.33918 21.0771 6.3269L21.0703 6.32104L21.4053 5.94897L21.0703 6.32007C20.9483 6.21045 20.699 6.1062 20.2188 6.1062C19.8302 6.10623 19.4884 6.1433 19.1904 6.21265C19.0023 6.25644 18.8114 6.30979 18.6182 6.37378C18.1296 6.53557 17.5795 6.27144 17.4307 5.75073L17.0889 4.55444C16.9639 4.11715 17.1763 3.62042 17.6396 3.45093L17.917 3.35425C18.197 3.26266 18.4845 3.18463 18.7793 3.11987V3.12085C19.3322 2.99163 19.9652 2.92946 20.6729 2.92944ZM20.7461 8.61108C20.4077 8.61112 20.2205 8.68936 20.1162 8.7771L20.1143 8.77808C20.0222 8.85486 19.9728 8.94845 19.9727 9.10913V9.1394C19.9727 9.29073 20.0157 9.36183 20.0723 9.41187C20.1525 9.47338 20.2681 9.51923 20.4531 9.51929C20.7599 9.51929 20.9615 9.43283 21.1064 9.29663C21.2425 9.16878 21.3301 8.98721 21.3301 8.69214V8.68433C21.2989 8.67689 21.2668 8.66692 21.2324 8.65991L21.2275 8.65894C21.0792 8.62713 20.9187 8.61108 20.7461 8.61108Z" fill="white" stroke="black"/>
<path d="M13.6846 1.00708C14.1963 1.00729 14.5955 1.42712 14.5957 1.92603V3.04907H15.5293C16.0413 3.04919 16.4414 3.46985 16.4414 3.96899V5.41138C16.4413 5.91044 16.0412 6.33021 15.5293 6.33032H14.5957V8.55884C14.5957 8.73099 14.6271 8.8024 14.6396 8.82544C14.6465 8.82939 14.6566 8.83663 14.6738 8.84204C14.7095 8.85322 14.7681 8.86352 14.8574 8.86353C14.9975 8.86353 15.1321 8.84478 15.2627 8.80786C15.7792 8.66179 16.412 9.0137 16.4121 9.65259V11.0667C16.412 11.3912 16.2367 11.7299 15.8955 11.8831C15.6689 11.9847 15.4258 12.0665 15.168 12.1301L15.167 12.1292C14.7987 12.2299 14.4014 12.2786 13.9785 12.2786C13.0614 12.2785 12.2757 12.0559 11.6885 11.5452C11.0625 11.0006 10.8145 10.1396 10.8145 9.1106V6.33032H10.7891C10.2771 6.33032 9.87705 5.91051 9.87695 5.41138V3.96899C9.87695 3.46978 10.277 3.04907 10.7891 3.04907H10.8145V1.92603C10.8147 1.4271 11.2138 1.00726 11.7256 1.00708H13.6846Z" fill="white" stroke="black"/>
<path d="M5.29102 0.5C6.2103 0.500034 7.04514 0.625387 7.78906 0.883789C8.40356 1.08647 8.97139 1.37263 9.48926 1.74316C9.90892 2.04345 9.96219 2.60798 9.69434 2.99316L8.73535 4.37207C8.44114 4.79492 7.88247 4.87423 7.47852 4.62207C7.14886 4.41631 6.81471 4.25734 6.47656 4.14258L6.46582 4.13867V4.1377C6.02574 3.97639 5.61049 3.90044 5.21777 3.90039C4.93769 3.90039 4.80175 3.95313 4.74414 3.99219C4.71157 4.01834 4.70121 4.0363 4.69824 4.04199C4.696 4.04633 4.69238 4.05337 4.69238 4.07129V4.10059C4.69238 4.1304 4.69884 4.14884 4.70215 4.16016C4.71814 4.17667 4.74625 4.20075 4.79297 4.23145C4.89996 4.28422 5.0482 4.34637 5.24414 4.41602C5.46169 4.48007 5.73749 4.55076 6.07422 4.62695H6.07324C6.67777 4.76038 7.22863 4.92039 7.72363 5.10938H7.72266C8.23401 5.29098 8.68289 5.52 9.06055 5.80273C9.45133 6.09531 9.75595 6.4576 9.96777 6.88672C10.1865 7.31975 10.2861 7.81903 10.2861 8.36523V8.39453C10.2861 8.99248 10.1704 9.54338 9.92969 10.0371L9.93164 10.0381C9.70447 10.5238 9.37927 10.9406 8.96191 11.2852L8.95605 11.29L8.64355 10.8994L8.95508 11.29C8.53899 11.622 8.04777 11.8722 7.49023 12.0469L7.48145 12.0498C6.9207 12.2145 6.30566 12.2939 5.6416 12.2939C4.67101 12.2939 3.74197 12.1412 2.85742 11.834L2.85547 11.833C2.11247 11.5718 1.43729 11.1995 0.833008 10.7158C0.423751 10.3882 0.40364 9.80732 0.708984 9.43555L1.77637 8.1377L1.83887 8.06836C2.16667 7.74218 2.6759 7.72434 3.03418 7.98145C3.88998 8.59583 4.7899 8.89347 5.74414 8.89355C6.08349 8.89355 6.26288 8.83787 6.34473 8.78906C6.38708 8.76181 6.40116 8.74246 6.40527 8.73535C6.40859 8.72957 6.41602 8.71454 6.41602 8.67773V8.64844C6.41602 8.63097 6.41354 8.62187 6.41309 8.62012L6.41699 8.62598L6.41016 8.61523L6.4082 8.6123C6.40662 8.6106 6.40357 8.6073 6.39941 8.60352C6.38485 8.59033 6.358 8.56989 6.31348 8.54395L6.30566 8.53906L6.29883 8.53516C6.22324 8.48781 6.09323 8.42833 5.88965 8.36523L5.87598 8.36133L5.86426 8.35645C5.67841 8.28764 5.41859 8.21376 5.07812 8.13672L5.07324 8.13574C4.51598 8.00402 3.99584 7.86143 3.51367 7.70801L3.50488 7.70508C3.00062 7.53393 2.5484 7.31635 2.1543 7.04883L2.14746 7.04492L2.1416 7.04004C1.74435 6.75112 1.42257 6.39513 1.18164 5.97461L1.17773 5.96777L1.17383 5.95996C0.930928 5.50223 0.822266 4.96447 0.822266 4.36914V4.33984C0.822266 3.79145 0.921784 3.27566 1.12695 2.7998L1.13086 2.79102C1.34622 2.31782 1.65326 1.90691 2.04785 1.5625L2.05371 1.55762C2.45993 1.21304 2.93879 0.955129 3.48145 0.77832C4.02876 0.590119 4.63422 0.5 5.29102 0.5Z" fill="white" stroke="black"/>
<path d="M57.7988 3.10181C58.6673 3.10181 59.4319 3.27598 60.0645 3.65552C60.5426 3.94243 60.952 4.30634 61.2891 4.74634C61.6076 5.1622 61.4781 5.71937 61.1074 6.00024L59.8955 6.91919C59.4745 7.23821 58.9385 7.1106 58.6367 6.80005C58.5467 6.7074 58.4572 6.63294 58.3691 6.57446C58.2506 6.49574 58.076 6.43874 57.8135 6.43872C57.6705 6.43872 57.5429 6.46996 57.4238 6.53052L57.4141 6.5354C57.3026 6.58918 57.2024 6.66819 57.1123 6.77954L57.1074 6.7854L57.1025 6.79028C57.0127 6.89481 56.936 7.02513 56.8779 7.18774L56.876 7.19556C56.8228 7.33783 56.793 7.50141 56.793 7.69165V7.72095C56.793 7.92299 56.8233 8.10721 56.8809 8.27563C56.939 8.43619 57.0166 8.57216 57.1104 8.68872C57.1962 8.78644 57.3003 8.86849 57.4277 8.93481C57.5459 8.98749 57.6814 9.01779 57.8418 9.01782C58.0913 9.01782 58.262 8.9622 58.3828 8.88208L58.3916 8.8772C58.5014 8.80734 58.6144 8.71826 58.7305 8.60864L58.8545 8.51001C59.14 8.3179 59.5296 8.27383 59.8584 8.47095L59.9336 8.52075L61.1289 9.40259C61.5158 9.68795 61.6421 10.2641 61.3076 10.6819C60.9535 11.1239 60.5348 11.4926 60.0527 11.7854C59.4073 12.1774 58.6112 12.3547 57.6982 12.3547C57.0523 12.3547 56.4443 12.2356 55.8799 11.9924L55.8721 11.9895C55.3211 11.7414 54.8388 11.409 54.4297 10.9924L54.4248 10.9885C54.0269 10.5724 53.7122 10.0867 53.4795 9.53735L53.4746 9.52661L53.4756 9.52563C53.2512 8.95971 53.1387 8.36691 53.1387 7.75024V7.72095C53.1387 7.1041 53.2508 6.51457 53.4766 5.9563L53.4785 5.95142C53.7112 5.39148 54.0308 4.89991 54.4395 4.48267C54.8521 4.0515 55.3446 3.71626 55.9111 3.47681V3.47778C56.4946 3.22539 57.1258 3.10183 57.7988 3.10181Z" fill="white" stroke="black"/>
<path d="M52.1514 4.17383C52.6633 4.17383 53.0633 4.59374 53.0635 5.09277V11.2441C53.0634 11.7433 52.6634 12.1631 52.1514 12.1631H50.25C49.738 12.1631 49.3379 11.7433 49.3379 11.2441V5.09277C49.3381 4.59374 49.7381 4.17383 50.25 4.17383H52.1514Z" fill="white" stroke="black"/>
<path d="M51.1895 0.5C52.3146 0.5 53.2274 1.41201 53.2275 2.53711C53.2275 3.66235 52.3147 4.5752 51.1895 4.5752C50.0644 4.57502 49.1523 3.66224 49.1523 2.53711C49.1525 1.41212 50.0645 0.500174 51.1895 0.5Z" fill="white" stroke="#171717"/>
</svg>
